<?xml version="1.0" standalone="no"?>
<!DOCTYPE svg PUBLIC "-//W3C//DTD SVG 20010904//EN"
 "http://www.w3.org/TR/2001/REC-SVG-20010904/DTD/svg10.dtd">
<svg version="1.0" xmlns="http://www.w3.org/2000/svg"
 width="1170.000000pt" height="2086.000000pt" viewBox="0 0 1170.000000 2086.000000"
 preserveAspectRatio="xMidYMid meet">

<g transform="translate(0.000000,2086.000000) scale(0.100000,-0.100000)"
fill="#000000" stroke="none">
<path d="M0 20850 c0 -6 124 -11 348 -12 191 -1 320 -3 287 -5 -33 -2 -64 -9
-70 -14 -6 -6 -11 -200 -12 -534 l-1 -525 62 -65 c34 -36 69 -65 78 -65 9 0
18 -5 20 -11 2 -7 54 -13 144 -16 153 -6 190 2 181 38 -3 10 -1 19 4 19 6 0 5
8 -1 20 -8 14 -7 26 1 43 6 12 8 19 4 14 -9 -8 -45 20 -45 35 0 11 -32 55 -72
99 -16 16 -28 41 -28 54 0 14 -6 25 -12 25 -8 1 -5 7 6 15 16 12 17 17 6 30
-10 12 -11 24 -2 53 8 24 8 58 3 98 -5 34 -8 93 -6 130 2 48 0 63 -6 49 -7
-15 -8 -13 -3 10 11 52 12 229 2 242 -7 9 -6 15 5 19 19 7 12 68 -10 93 -46
53 -95 101 -103 101 -6 0 -10 5 -10 10 0 6 -15 17 -32 25 -30 13 -6 14 222 13
140 0 244 -2 230 -5 -14 -2 -35 -6 -48 -9 l-23 -5 1 -357 c1 -197 0 -362 -1
-368 -1 -5 -1 -13 0 -19 1 -5 2 -85 1 -176 l-1 -166 75 -78 c58 -60 79 -76 94
-71 13 5 22 1 26 -10 5 -14 16 -16 63 -10 31 4 63 12 70 18 7 6 13 7 14 2 0
-5 5 5 10 21 5 19 5 31 -1 33 -17 6 -12 100 6 110 15 8 15 10 0 15 -15 6 -16
34 -14 277 2 148 7 270 11 270 5 0 5 5 1 11 -12 20 -13 129 -1 122 6 -4 7 -1
2 7 -4 7 -9 54 -11 104 -1 50 -3 98 -3 107 -1 24 -120 150 -156 165 -25 11
853 13 5183 14 3468 0 5212 3 5212 10 0 7 -1957 10 -5850 10 -3893 0 -5850 -3
-5850 -10z m699 -73 c7 -9 11 -148 11 -447 0 -335 3 -436 13 -442 6 -4 30 -8
53 -8 58 0 76 -17 72 -65 l-3 -40 -113 1 c-62 1 -117 5 -122 10 -11 11 -15
978 -5 994 9 15 81 12 94 -3z m567 2 c8 -13 12 -933 4 -994 -5 -38 -7 -40 -43
-42 -69 -2 -66 -27 -67 521 0 271 2 501 6 510 7 19 89 23 100 5z"/>
<path d="M0 20810 c0 -19 7 -20 115 -20 103 0 115 -2 125 -19 14 -27 13 -66
-3 -79 -7 -6 -40 -12 -72 -14 l-60 -3 0 -175 0 -175 60 -3 c74 -4 87 -14 83
-66 l-3 -41 -65 -3 c-36 -2 -68 -8 -72 -15 -4 -7 -8 -100 -8 -208 0 -217 3
-209 -66 -209 -33 0 -34 -1 -34 -37 0 -32 6 -41 35 -61 19 -12 35 -27 35 -32
0 -6 10 -10 23 -10 13 0 27 -3 31 -7 17 -18 136 -18 148 -1 19 30 25 92 22
228 -3 175 6 215 48 206 16 -3 39 0 53 6 22 10 25 17 25 66 0 42 -6 64 -27 98
-16 24 -35 46 -43 49 -38 14 -54 56 -57 157 -3 109 -3 109 64 111 33 2 40 7
55 38 29 63 -1 117 -118 210 -36 29 -38 29 -165 29 -122 0 -129 -1 -129 -20z"/>
<path d="M1612 20822 c-13 -9 -12 -28 7 -132 5 -30 15 -86 21 -125 6 -38 23
-119 37 -179 21 -86 24 -113 15 -127 -7 -10 -12 -33 -12 -51 0 -18 -9 -80 -21
-138 -11 -58 -22 -116 -24 -130 -1 -14 -5 -45 -9 -70 -4 -25 -8 -58 -11 -75
-2 -16 -7 -46 -10 -65 -8 -41 4 -57 93 -122 31 -23 59 -44 62 -47 3 -3 17 -12
33 -19 15 -6 38 -17 50 -23 29 -13 97 12 97 35 0 21 12 20 41 -3 61 -47 122
-72 194 -77 48 -3 60 3 44 22 -10 12 -8 18 11 31 l23 16 -21 8 c-12 5 -22 16
-22 26 -2 59 -10 124 -18 140 -6 10 -15 54 -22 98 -7 44 -13 85 -14 92 -1 7
-5 15 -9 19 -4 4 -4 18 -1 31 4 13 1 30 -6 38 -6 8 -9 19 -6 24 4 5 2 12 -4
16 -9 6 -8 59 4 232 3 29 11 65 18 81 8 16 14 46 13 68 -1 21 2 45 8 51 5 7
10 33 12 59 2 25 7 50 12 55 6 6 4 31 -5 66 -12 47 -24 66 -66 106 -79 76 -83
77 -167 77 -73 0 -79 -2 -97 -27 l-21 -28 -28 28 c-27 25 -35 27 -109 27 -43
0 -85 -4 -92 -8z m160 -73 c4 -20 12 -69 18 -110 22 -154 27 -180 38 -191 7
-7 12 -10 12 -7 0 2 9 58 21 124 11 66 23 138 26 160 8 56 18 65 74 65 l49 0
0 -49 c0 -26 -4 -61 -10 -77 -5 -16 -16 -74 -25 -129 -8 -55 -21 -136 -30
-180 -13 -74 -13 -90 5 -205 44 -291 60 -407 60 -443 l0 -39 -52 7 c-29 4 -56
9 -59 11 -7 4 -26 111 -40 234 -22 183 -24 190 -35 182 -9 -6 -22 -88 -52
-342 -7 -54 -8 -55 -41 -58 -19 -2 -44 -1 -57 2 -26 7 -41 43 -25 59 6 6 11
26 11 43 0 18 7 66 15 106 9 40 22 125 30 188 8 63 19 130 24 148 7 24 5 54
-9 115 -10 45 -23 111 -29 147 -18 107 -39 214 -46 233 -15 36 1 48 62 45 57
-3 57 -3 65 -39z"/>
<path d="M5275 20743 c-11 -3 -24 -8 -28 -12 -4 -4 -8 -273 -8 -597 l0 -589
63 -57 c47 -43 71 -57 94 -58 16 0 35 -5 40 -10 8 -8 19 -7 39 0 15 6 37 8 49
5 17 -5 18 -4 6 4 -16 11 -9 14 25 12 17 -2 17 0 5 8 -13 9 -13 12 2 27 16 17
20 16 60 -4 36 -19 55 -22 119 -18 92 5 141 21 154 50 6 12 10 143 9 311 -1
160 3 295 8 302 5 7 5 14 0 17 -5 3 -10 107 -11 233 -1 135 -6 229 -11 231 -6
2 -10 9 -10 17 0 7 -30 39 -66 70 l-66 58 -88 1 c-81 1 -90 -1 -107 -23 l-19
-24 -27 25 c-24 23 -35 25 -119 25 -51 1 -102 -1 -113 -4z m178 -51 c16 -13
28 -73 48 -237 6 -49 13 -103 15 -120 7 -59 52 -337 60 -373 2 -13 9 -20 14
-17 6 4 10 148 10 376 l0 369 26 10 c34 13 47 13 68 -3 18 -13 19 -42 20 -520
0 -278 -1 -516 -4 -529 -5 -20 -15 -24 -85 -34 -44 -6 -86 -9 -92 -7 -17 7
-27 50 -48 208 -20 145 -34 243 -61 419 -26 173 -36 121 -33 -179 3 -320 0
-448 -10 -458 -15 -15 -88 -20 -96 -8 -4 7 -6 256 -6 554 1 459 3 544 16 553
19 14 139 11 158 -4z"/>
<path d="M6049 20737 c-14 -11 -16 -69 -15 -552 1 -613 -6 -561 87 -635 28
-22 61 -43 74 -46 13 -3 79 -4 148 -2 100 3 128 7 141 21 10 9 21 17 25 17 13
0 6 87 -7 103 -6 7 -9 16 -6 19 3 3 -10 21 -28 39 -18 19 -43 48 -55 66 -27
38 -40 132 -21 145 10 6 10 10 -2 19 -11 8 -12 12 -2 16 6 2 10 9 6 14 -10 16
6 31 21 19 18 -15 62 -2 84 26 10 13 22 20 26 16 4 -4 2 4 -5 18 -8 14 -15 37
-17 52 -3 29 -54 107 -79 121 -8 4 -14 14 -14 21 0 8 -7 19 -15 26 -16 13 -16
64 0 90 5 9 4 15 -3 18 -7 2 -12 22 -12 43 0 22 4 38 9 35 5 -3 14 0 20 8 6 8
32 17 56 20 41 7 45 10 55 44 13 48 13 52 -4 52 -8 0 -19 14 -25 30 -5 17 -38
57 -71 90 l-61 59 -147 0 c-98 0 -152 -4 -163 -12z m279 -40 c15 -10 16 -69 0
-85 -7 -7 -32 -12 -57 -12 -75 0 -73 3 -72 -180 1 -90 4 -166 6 -170 3 -4 31
-11 62 -15 64 -8 73 -15 73 -61 0 -42 -15 -52 -80 -56 l-55 -3 0 -170 0 -170
59 -2 c35 -2 63 -8 68 -15 11 -18 10 -75 -1 -82 -16 -10 -159 -21 -228 -17
l-23 1 0 513 c0 355 3 516 11 524 12 12 217 12 237 0z"/>
<path d="M6594 20735 c-17 -11 -21 -26 -23 -75 -2 -68 11 -93 81 -161 l38 -37
0 -397 0 -396 42 -37 c23 -20 49 -44 58 -53 43 -41 65 -49 133 -49 105 0 114
10 114 135 0 55 3 112 6 127 6 23 5 26 -10 21 -15 -5 -16 -4 -7 8 13 16 12 9
12 159 1 150 1 155 3 225 1 33 -1 70 -5 82 -4 12 -3 38 3 58 5 21 6 37 0 40
-9 6 16 64 29 66 4 1 17 3 29 4 37 4 53 14 53 34 0 11 6 22 13 24 9 4 9 8 1
14 -7 4 -17 27 -23 50 -11 42 -34 73 -52 73 -5 0 -9 6 -10 13 0 6 -20 28 -43
48 l-43 36 -190 1 c-150 1 -193 -1 -209 -13z m365 -39 c7 -8 11 -32 9 -53 -3
-38 -3 -38 -55 -43 -28 -3 -54 -8 -57 -11 -3 -2 -6 -202 -8 -442 -3 -376 -5
-439 -18 -447 -20 -13 -77 -13 -85 0 -4 6 -6 206 -6 445 0 490 6 455 -77 455
-51 0 -64 27 -43 83 9 24 10 24 169 26 129 2 161 -1 171 -13z"/>
<path d="M7269 20734 c-9 -11 -12 -151 -14 -535 l-2 -520 74 -65 c47 -41 82
-64 98 -64 13 0 27 -5 30 -11 8 -12 102 -7 130 8 19 11 20 20 18 204 -1 133 2
198 10 209 7 8 31 16 57 18 27 2 50 10 58 20 21 27 6 109 -29 156 -16 22 -29
46 -29 53 0 7 -6 10 -13 7 -7 -2 -22 8 -34 24 -30 41 -33 183 -4 214 11 11 26
18 34 15 8 -3 25 2 37 10 18 13 24 13 31 2 6 -11 9 -11 13 1 14 45 15 69 3 73
-9 3 -9 7 2 20 11 15 11 17 -2 17 -8 0 -21 13 -28 29 -7 15 -28 38 -46 51 -18
12 -33 26 -33 31 0 5 -7 9 -15 9 -8 0 -15 7 -15 15 0 18 3 17 -177 21 -113 2
-145 -1 -154 -12z m279 -37 c13 -9 16 -54 6 -81 -5 -12 -21 -16 -65 -16 -45 0
-60 -4 -68 -18 -11 -21 -14 -312 -3 -329 4 -6 32 -14 62 -18 60 -6 80 -23 80
-65 0 -39 -18 -50 -82 -50 -32 0 -59 -1 -60 -2 -1 -2 -4 -95 -7 -208 l-6 -205
-44 -3 c-28 -2 -47 1 -52 10 -13 19 -11 955 1 978 9 17 21 19 118 17 59 -1
113 -6 120 -10z"/>
<path d="M7875 20725 c-15 -25 -19 -1003 -4 -1043 5 -14 36 -51 69 -83 70 -69
97 -78 272 -85 139 -5 148 -1 140 73 -5 54 -35 121 -57 130 -8 3 -15 11 -15
19 0 7 -9 18 -21 24 -12 7 -18 18 -15 26 3 8 1 14 -4 14 -15 0 -43 68 -34 82
10 16 11 108 2 108 -12 0 -9 55 4 68 8 8 8 15 -1 26 -9 11 -11 34 -7 73 8 71
8 110 1 192 -3 36 -1 78 6 98 13 40 3 127 -17 148 -8 7 -14 18 -14 22 0 13
-59 74 -101 106 -32 24 -43 27 -114 24 -65 -2 -80 -5 -90 -22z m137 -39 c5 -6
8 -204 7 -441 0 -487 -6 -455 83 -455 56 0 70 -17 59 -70 -6 -32 -10 -35 -46
-38 -50 -5 -177 7 -193 17 -9 5 -12 127 -13 496 -1 451 1 490 16 501 19 14 75
8 87 -10z"/>
<path d="M8458 20742 c-10 -2 -18 -7 -19 -10 0 -4 -2 -247 -4 -540 l-3 -532
28 -38 c43 -58 98 -112 125 -122 51 -20 148 -23 180 -6 22 12 25 16 11 16 -13
0 -16 4 -9 13 8 10 18 373 14 477 0 14 -2 59 -3 102 -2 42 -6 80 -10 83 -4 4
-4 15 1 24 5 9 8 79 8 156 0 77 3 152 6 168 5 16 3 27 -3 27 -5 0 -10 8 -10
19 0 10 -7 24 -15 31 -8 7 -15 18 -15 25 0 7 -9 15 -20 18 -13 3 -18 10 -14
21 4 12 0 16 -15 16 -12 0 -24 7 -28 15 -14 37 -110 54 -205 37z m118 -43 c12
-9 14 -101 14 -513 0 -275 -4 -507 -9 -514 -5 -9 -23 -12 -51 -10 -38 3 -45 7
-51 31 -11 40 -11 975 0 995 11 20 77 28 97 11z"/>
<path d="M8920 20735 c-13 -15 40 -333 72 -434 14 -45 13 -178 -1 -214 -6 -16
-11 -45 -11 -66 0 -20 -4 -41 -9 -46 -7 -8 -24 -101 -36 -205 -18 -159 -18
-158 3 -185 11 -14 37 -37 57 -51 20 -13 51 -38 68 -54 18 -17 41 -31 52 -31
29 -3 38 -4 61 -12 23 -8 88 19 79 33 -3 5 -1 11 4 14 5 3 32 -12 60 -34 28
-22 61 -40 74 -40 14 0 30 -7 37 -15 30 -36 131 25 109 66 -5 10 -9 31 -9 48
0 17 -5 31 -11 31 -5 0 -7 5 -4 10 3 6 3 16 -2 23 -4 6 -9 21 -9 32 -5 60 -18
131 -25 135 -4 3 -10 42 -13 87 -4 45 -13 102 -20 127 -8 25 -12 55 -9 66 3
13 0 20 -8 20 -10 1 -9 4 3 11 14 8 15 15 8 35 -13 32 -12 37 0 29 6 -3 10 4
11 17 0 13 2 37 5 53 7 58 13 110 17 156 3 25 10 56 17 68 6 12 9 29 6 38 -3
8 0 24 8 35 10 14 12 27 6 44 -6 15 -6 24 0 24 6 0 10 8 10 18 -1 21 -23 52
-39 52 -6 0 -11 4 -11 8 0 12 -54 70 -90 97 -47 35 -153 34 -205 -1 l-37 -24
-30 25 c-27 23 -38 25 -104 23 -42 -1 -79 -7 -84 -13z m157 -55 c7 -14 13 -36
13 -50 0 -14 9 -74 20 -135 11 -60 20 -111 20 -112 0 -2 6 -3 13 -3 10 0 19
34 31 113 33 210 43 227 120 213 40 -8 43 -17 27 -89 -5 -23 -17 -85 -26 -137
-9 -52 -24 -138 -34 -189 -11 -64 -15 -111 -10 -145 4 -28 15 -98 23 -156 43
-283 55 -383 50 -392 -8 -13 -101 -5 -115 9 -6 6 -17 66 -25 134 -8 68 -18
146 -24 172 -5 26 -10 61 -10 77 0 17 -4 30 -10 30 -5 0 -10 -1 -11 -2 -4 -14
-32 -232 -38 -296 -10 -102 -20 -115 -81 -104 -55 9 -58 23 -35 144 9 45 22
124 30 173 8 50 16 104 19 120 21 123 23 154 15 195 -6 25 -18 92 -29 150 -10
58 -26 137 -34 175 -16 70 -20 118 -12 126 3 3 26 4 53 4 40 0 49 -4 60 -25z"/>
<path d="M9480 20360 c0 -5 5 -10 11 -10 5 0 7 5 4 10 -3 6 -8 10 -11 10 -2 0
-4 -4 -4 -10z"/>
<path d="M1653 17952 c-28 -3 -33 -8 -38 -35 -3 -18 -4 -288 -3 -600 l3 -569
36 -31 c83 -74 105 -87 148 -87 16 0 32 -6 34 -12 4 -10 6 -10 6 0 1 6 13 12
27 12 30 0 69 28 69 50 0 18 45 16 56 -2 5 -7 26 -12 48 -11 22 1 43 -2 46 -7
3 -5 15 -6 28 -3 12 3 48 7 79 10 62 6 88 24 89 64 0 13 -1 119 -2 235 -1 116
2 217 6 224 5 8 4 11 -2 7 -8 -5 -11 75 -10 258 1 209 4 265 14 265 17 0 16
15 -2 30 -8 7 -17 27 -21 45 -4 24 -24 51 -69 93 -54 52 -69 61 -111 66 -90
11 -164 -8 -164 -41 0 -13 -7 -10 -31 13 -29 27 -35 29 -117 29 -48 0 -101 -1
-119 -3z m178 -48 c11 -13 18 -53 44 -254 9 -63 20 -142 26 -175 6 -33 12 -76
14 -95 7 -72 37 -225 46 -234 11 -12 11 -16 10 409 -1 182 2 335 6 341 5 6 27
15 50 19 35 5 43 4 52 -14 8 -13 11 -188 11 -539 l0 -520 -27 -11 c-34 -13
-158 -19 -169 -8 -5 5 -16 68 -25 140 -10 73 -20 148 -23 167 -3 19 -17 112
-31 205 -28 189 -31 199 -45 190 -6 -4 -8 -122 -3 -339 3 -183 3 -343 0 -357
-8 -31 -66 -55 -96 -39 -20 10 -20 22 -20 555 1 448 3 548 14 559 19 18 151
18 166 0z"/>
<path d="M2440 17947 l-25 -13 -5 -219 c-3 -121 -3 -370 0 -554 l5 -333 49
-45 c27 -24 65 -51 85 -59 43 -19 208 -21 270 -4 23 6 46 8 51 5 6 -3 11 0 12
7 0 7 2 18 2 23 1 6 5 16 10 23 4 7 3 19 -4 27 -7 8 -9 22 -6 32 4 9 3 19 -1
22 -12 9 -66 75 -83 101 -8 13 -23 31 -32 41 -9 10 -12 19 -7 21 7 2 7 12 1
28 -5 14 -6 34 -2 45 5 11 6 29 4 40 -7 33 12 50 55 50 28 0 41 4 41 13 0 8 6
12 13 9 10 -4 13 9 11 54 -2 63 -19 94 -91 168 -30 31 -33 40 -31 85 1 28 -2
65 -5 81 -9 41 15 67 83 90 58 18 66 32 46 77 -4 9 -5 22 -1 28 4 6 -28 44
-70 84 -74 71 -79 74 -134 79 -112 10 -216 7 -241 -6z m261 -48 c14 -14 17
-27 13 -47 -10 -41 -11 -42 -69 -42 -43 0 -56 -4 -65 -19 -15 -30 -13 -326 3
-339 7 -6 37 -12 67 -14 l55 -3 0 -50 0 -50 -55 -5 c-30 -3 -61 -9 -67 -13
-18 -11 -18 -323 -1 -333 7 -4 37 -8 66 -8 64 -1 82 -18 66 -63 -9 -27 -13
-29 -118 -42 -76 -10 -113 -12 -124 -4 -15 9 -17 57 -17 524 l0 514 30 6 c17
4 68 6 114 6 69 0 87 -3 102 -18z"/>
<path d="M2971 17950 c-20 -13 -26 -45 -21 -103 4 -52 11 -71 35 -100 17 -19
35 -36 42 -36 35 -2 38 -40 38 -444 l0 -398 29 -22 c16 -12 44 -35 62 -52 53
-49 86 -63 145 -60 30 2 66 8 82 14 31 12 32 18 28 310 -2 122 1 166 10 172
10 6 10 11 1 22 -9 11 -12 68 -10 208 l3 194 32 0 c17 0 29 3 26 7 -2 5 3 8
12 8 29 0 49 30 46 69 -4 42 -26 90 -47 98 -7 3 -14 10 -14 17 0 6 -22 31 -48
56 l-47 46 -70 -3 c-38 -1 -74 -2 -80 -3 -5 0 -63 1 -128 3 -66 1 -122 0 -126
-3z m370 -51 c5 -8 8 -30 7 -49 -3 -35 -3 -35 -55 -38 -28 -2 -56 -9 -62 -16
-7 -9 -12 -158 -13 -452 l-3 -439 -50 0 -50 0 -3 440 c-1 274 -6 443 -12 449
-6 6 -31 13 -58 16 -46 5 -47 6 -50 43 -5 63 -1 65 179 62 125 -2 163 -5 170
-16z"/>
<path d="M3675 17952 c-16 -2 -33 -7 -38 -11 -4 -4 -7 -243 -7 -532 l0 -524
27 -24 c16 -13 46 -40 68 -61 35 -33 51 -39 115 -49 41 -7 76 -13 78 -15 2 -2
15 -1 29 3 22 6 26 14 29 46 2 22 3 51 2 65 -2 24 -1 47 1 185 1 33 -1 75 -4
93 -3 27 -1 33 11 28 10 -4 14 0 12 12 -2 13 5 18 35 20 54 5 77 28 77 77 -1
49 -10 67 -75 140 -55 63 -75 121 -47 141 13 9 13 12 -3 17 -16 7 -16 9 -2 30
10 15 12 29 6 38 -7 11 -9 10 -10 -6 0 -11 -3 -14 -6 -7 -3 7 3 24 12 38 13
20 23 25 46 22 19 -3 30 1 34 10 4 12 8 13 17 4 7 -7 15 -12 19 -12 11 0 4
100 -9 132 -8 20 -8 28 1 32 7 3 5 4 -4 3 -8 -1 -44 22 -78 52 l-63 54 -121 2
c-67 1 -135 0 -152 -3z m245 -48 c14 -14 19 -56 8 -76 -7 -14 -21 -18 -62 -18
-33 0 -58 -5 -65 -14 -8 -9 -11 -66 -9 -182 l3 -169 65 -5 c64 -5 64 -5 71
-40 11 -54 -3 -70 -64 -70 -29 0 -58 -4 -65 -9 -10 -6 -13 -51 -12 -193 0
-102 -3 -193 -6 -202 -4 -12 -19 -16 -54 -16 l-48 0 -3 38 c-2 20 -4 243 -3
495 0 389 2 460 15 467 19 12 216 7 229 -6z"/>
<path d="M4259 17948 c-18 -7 -20 -16 -19 -95 1 -49 1 -136 0 -195 0 -59 0
-110 1 -115 1 -4 1 -12 0 -18 -1 -5 -1 -153 -1 -329 l0 -318 58 -57 c87 -85
97 -90 204 -94 51 -2 99 -6 105 -10 6 -4 13 -2 15 5 3 9 11 9 29 -4 24 -15 26
-14 51 11 28 29 46 71 29 71 -6 0 -11 15 -11 33 0 25 -13 50 -51 98 -28 35
-56 69 -63 74 -22 17 -37 53 -26 60 10 6 8 23 -6 88 -6 27 10 39 19 15 2 -7 2
1 -1 17 -2 17 -6 108 -8 202 -1 95 -5 177 -8 182 -4 5 -3 12 2 15 6 4 9 91 2
91 -1 0 -3 13 -5 30 -3 21 -1 25 5 15 5 -8 12 -11 17 -7 4 4 2 17 -5 27 -7 11
-12 31 -12 44 0 13 -7 27 -16 30 -9 4 -14 13 -10 22 3 8 2 13 -3 9 -5 -3 -20
7 -33 22 -71 81 -84 88 -164 88 -41 0 -84 -3 -95 -7z m132 -101 c0 -29 1 -227
2 -440 2 -434 -3 -407 78 -407 25 0 50 -5 57 -12 17 -17 15 -73 -3 -88 -19
-16 -210 -7 -231 11 -12 10 -14 91 -12 503 l3 491 35 6 c56 9 70 -4 71 -64z"/>
<path d="M4825 17944 c-13 -10 -15 -77 -15 -549 -1 -423 2 -541 12 -553 7 -9
37 -42 65 -72 29 -30 53 -57 53 -60 0 -4 16 -4 36 -2 24 3 34 1 30 -6 -4 -6
15 -12 51 -14 78 -5 98 13 95 89 -1 30 -4 59 -8 64 -3 6 4 21 17 35 19 20 20
24 6 24 -20 0 -23 36 -4 43 9 3 9 7 1 18 -8 10 -11 71 -10 192 1 145 4 180 16
188 13 9 12 10 -2 5 -15 -4 -17 4 -16 72 0 42 4 82 10 89 6 7 5 14 -2 18 -6 3
-8 10 -6 14 3 4 1 43 -3 87 -5 43 -6 84 -2 89 12 21 8 75 -6 75 -7 0 -13 7
-13 15 0 8 -11 25 -25 39 -14 14 -25 32 -25 41 0 9 -4 14 -9 11 -5 -3 -22 8
-40 24 -17 17 -36 31 -43 32 -49 6 -150 1 -163 -8z m109 -34 l26 -10 -2 -512
c-3 -490 -4 -513 -21 -516 -11 -2 -34 -1 -53 3 l-34 6 0 502 c0 276 4 507 8
513 6 10 28 21 44 23 4 1 18 -3 32 -9z"/>
<path d="M5305 17948 c-17 -10 -20 -66 -6 -130 6 -24 18 -79 27 -123 10 -44
19 -87 21 -95 2 -8 5 -32 6 -52 1 -21 4 -38 8 -38 5 0 20 -66 20 -95 1 -22
-39 -260 -58 -345 -3 -14 -9 -59 -14 -100 -5 -41 -13 -86 -18 -100 -5 -14 -4
-36 1 -50 10 -28 47 -70 60 -70 9 0 26 -12 64 -47 56 -52 134 -76 181 -56 24
9 30 17 26 33 -6 23 9 27 27 5 7 -8 21 -15 31 -15 11 0 19 -6 19 -13 0 -15 57
-42 119 -56 35 -7 51 -6 73 5 26 13 39 44 20 44 -5 0 -9 16 -10 35 -1 20 -6
52 -11 73 -5 20 -13 62 -16 92 -4 30 -12 66 -16 79 -5 13 -12 49 -14 80 -3 31
-11 79 -19 106 -17 62 -12 290 7 338 7 17 14 50 15 72 2 22 8 58 14 80 6 22
12 54 13 70 1 17 3 35 4 40 2 6 3 29 2 52 -1 37 -8 49 -63 105 -84 84 -101 92
-185 85 -51 -5 -72 -12 -85 -27 -20 -25 -22 -25 -57 1 -21 15 -45 21 -99 23
-39 1 -78 -2 -87 -6z m145 -44 c2 -3 12 -53 21 -112 37 -232 35 -224 55 -198
8 11 14 29 14 40 0 12 10 76 22 143 21 114 24 123 50 134 39 16 88 3 88 -24 0
-25 -31 -212 -61 -370 -20 -107 -20 -147 0 -255 6 -29 13 -80 16 -114 3 -34 8
-64 10 -68 8 -13 37 -271 31 -277 -7 -8 -71 -6 -97 2 -11 4 -20 28 -28 78 -7
39 -17 95 -21 122 -5 28 -12 84 -16 126 -9 116 -28 135 -38 39 -14 -134 -42
-326 -49 -337 -11 -17 -78 -16 -102 1 -18 13 -18 16 3 122 12 60 33 185 47
279 30 190 30 191 -32 480 -39 182 -38 177 -17 192 17 13 89 10 104 -3z"/>
<path d="M8988 17902 c-21 -2 -39 -9 -42 -19 -3 -8 -6 -276 -6 -595 l0 -580
26 -31 c45 -54 151 -116 173 -103 6 4 20 2 31 -4 17 -9 27 -6 55 16 20 15 35
35 35 46 0 15 4 18 13 11 28 -21 94 -35 169 -37 44 -1 82 2 84 6 3 4 11 5 18
2 8 -3 17 0 21 6 5 8 11 8 21 -1 16 -13 15 -17 18 94 1 37 -2 67 -6 67 -5 0
-6 5 -2 12 9 15 13 128 4 128 -10 0 -7 74 3 81 5 3 4 22 -1 42 -7 23 -6 39 0
45 7 7 6 22 -3 46 -10 29 -11 45 -1 81 6 24 9 51 6 60 -4 9 -1 28 7 41 8 17
10 28 3 32 -6 4 -11 45 -12 92 -2 47 -3 90 -3 95 0 6 2 45 4 87 3 44 1 81 -4
84 -6 3 -7 13 -4 23 3 11 -8 32 -30 58 -19 23 -35 49 -35 60 0 13 -3 15 -9 5
-6 -10 -10 -10 -21 3 -27 33 -75 46 -155 43 -66 -3 -80 -6 -89 -23 -6 -11 -12
-22 -14 -24 -1 -3 -11 5 -22 17 -11 12 -31 24 -43 26 -31 7 -145 12 -189 8z
m170 -54 c6 -7 20 -83 31 -168 12 -85 26 -182 31 -215 6 -33 17 -107 25 -165
8 -58 16 -114 19 -125 3 -11 8 -38 12 -60 16 -96 23 18 23 362 -1 199 2 366 6
372 8 13 92 15 99 2 4 -5 6 -247 7 -537 0 -388 -3 -529 -11 -534 -7 -4 -46
-10 -87 -14 -81 -8 -103 0 -103 38 0 11 -9 77 -19 146 -34 214 -53 342 -63
418 -5 40 -16 87 -24 105 -13 29 -14 -8 -11 -335 3 -264 1 -372 -7 -383 -7
-10 -29 -17 -56 -18 l-45 -2 -3 550 c-1 303 0 556 3 563 3 8 29 12 83 12 52 0
83 -4 90 -12z"/>
<path d="M9888 17902 c-97 -2 -129 -6 -138 -17 -10 -12 -12 -142 -11 -561 l1
-546 37 -34 c21 -18 43 -38 50 -44 21 -18 105 -60 120 -60 8 0 11 5 8 10 -4 7
7 8 34 4 26 -4 46 -2 55 5 8 7 17 8 20 3 5 -8 114 2 146 14 13 4 13 6 0 14
-13 8 -12 11 4 23 18 13 18 15 -6 68 -14 30 -33 62 -43 72 -52 52 -101 167
-76 175 15 5 14 18 -5 36 -8 9 -11 16 -5 16 6 0 11 8 11 19 0 26 25 44 49 36
27 -8 61 11 61 35 0 10 5 22 10 25 12 8 13 45 1 45 -5 0 -8 6 -7 13 1 16 -26
55 -78 114 l-39 43 -1 93 c-1 95 7 116 45 117 9 0 31 7 48 16 28 14 32 20 27
45 -3 16 -1 29 6 31 13 5 -29 72 -69 110 -90 86 -84 84 -255 80z m140 -54 c16
-16 15 -73 -1 -86 -7 -6 -37 -12 -67 -14 l-55 -3 -3 -177 c-2 -139 0 -178 10
-179 7 0 34 0 59 1 55 2 71 -14 67 -67 -3 -37 -4 -38 -48 -41 -98 -5 -90 10
-90 -182 0 -160 1 -169 20 -175 11 -4 34 -4 50 0 44 10 70 -9 70 -50 0 -23 -6
-38 -18 -44 -27 -14 -228 -26 -236 -13 -3 5 -6 238 -7 517 0 409 2 510 13 516
21 14 222 11 236 -3z"/>
<path d="M10476 17902 c-116 -2 -184 -7 -193 -14 -11 -9 -13 -29 -8 -87 l5
-75 55 -53 55 -54 0 -389 c0 -381 4 -440 32 -440 5 0 27 -17 48 -37 69 -67 66
-66 161 -65 49 1 93 3 98 6 5 4 7 15 4 26 -3 12 1 22 11 26 9 3 16 13 16 22 0
13 -3 12 -15 -4 -13 -18 -14 -17 -15 19 0 20 3 37 8 37 6 0 7 204 1 220 -1 3
-2 123 -3 267 -1 170 2 266 9 275 16 21 58 39 84 36 27 -3 33 17 24 89 -5 35
-17 54 -77 116 -43 45 -81 76 -96 78 -14 2 -106 3 -204 1z m192 -91 c4 -52 -6
-61 -65 -61 -23 0 -44 -4 -47 -9 -3 -5 -6 -201 -7 -436 -1 -414 -1 -427 -21
-447 -15 -15 -28 -19 -51 -14 -17 3 -32 8 -35 10 -2 2 -4 195 -4 428 0 232 -3
433 -5 446 -4 19 -12 22 -48 22 -65 0 -87 28 -65 85 l10 25 167 -2 168 -3 3
-44z"/>
<path d="M10969 17885 c-10 -16 -13 -129 -14 -510 -1 -269 2 -506 6 -525 5
-19 14 -37 21 -39 7 -2 35 -26 62 -52 27 -27 57 -49 68 -49 10 0 21 -6 24 -13
3 -9 23 -13 66 -12 51 1 64 5 82 26 20 23 21 35 19 211 -1 206 -1 207 59 212
60 5 79 22 77 69 -2 52 -36 113 -91 166 l-43 40 0 93 c0 80 2 95 19 109 15 12
28 14 48 8 21 -6 28 -4 28 7 0 8 4 14 10 14 5 0 17 16 25 36 14 34 14 39 -5
68 -10 18 -49 60 -85 93 l-67 62 -148 3 c-139 3 -149 2 -161 -17z m279 -37 c7
-7 12 -26 12 -43 0 -44 -16 -55 -82 -55 l-58 0 0 -180 0 -180 39 0 c21 0 53
-3 70 -6 31 -6 32 -8 29 -53 l-3 -46 -60 -3 c-33 -2 -64 -7 -69 -12 -6 -6 -9
-87 -7 -188 3 -212 -2 -232 -57 -232 -21 0 -43 5 -50 12 -16 16 -17 949 -2
979 10 17 22 19 118 19 71 0 112 -4 120 -12z"/>
<path d="M11581 17891 c-11 -7 -13 -104 -13 -537 l-1 -529 59 -57 c33 -32 62
-58 67 -58 4 0 7 29 7 65 0 64 0 65 -27 66 -16 1 -31 1 -35 1 -26 -4 -29 43
-28 513 0 268 3 491 6 496 3 5 23 9 45 9 32 0 39 3 39 20 0 17 -7 20 -52 20
-29 0 -59 -4 -67 -9z"/>
<path d="M5831 17404 c0 -11 3 -14 6 -6 3 7 2 16 -1 19 -3 4 -6 -2 -5 -13z"/>
<path d="M5165 17230 c-3 -5 -1 -10 4 -10 6 0 11 5 11 10 0 6 -2 10 -4 10 -3
0 -8 -4 -11 -10z"/>
<path d="M5350 15103 c-18 -13 -19 -30 -19 -608 1 -327 4 -595 8 -595 8 0 23
-12 84 -66 29 -26 101 -55 127 -51 8 2 21 6 28 10 6 5 16 6 21 3 5 -3 14 1 21
9 6 7 18 11 27 8 12 -5 14 -1 9 15 -4 12 -2 23 6 28 6 4 14 2 16 -4 2 -7 14
-12 27 -12 13 0 26 -4 29 -9 5 -8 132 -7 209 2 49 6 76 83 56 162 -1 6 1 18 5
27 4 9 3 33 -4 53 -8 24 -8 40 -2 48 6 7 7 31 3 58 -4 26 -4 80 0 120 5 41 5
75 0 77 -9 3 -5 520 4 560 4 15 1 22 -10 22 -8 0 -15 4 -15 9 0 5 -26 37 -57
70 -60 65 -88 78 -175 80 -60 1 -94 -12 -103 -40 -7 -20 -8 -21 -17 -5 -16 29
-58 39 -161 41 -68 1 -103 -2 -117 -12z m182 -28 c30 -7 28 1 68 -290 12 -82
25 -170 30 -195 5 -25 15 -93 21 -152 13 -106 21 -139 34 -126 4 4 7 171 6
372 -1 320 1 366 15 380 18 19 75 21 92 4 9 -9 12 -142 12 -539 l0 -527 -32
-10 c-18 -6 -59 -13 -91 -15 -51 -5 -59 -3 -71 16 -8 12 -16 47 -20 77 -8 74
-31 237 -57 400 -22 144 -27 178 -28 198 -1 6 -7 12 -14 12 -10 0 -13 -73 -12
-357 l0 -357 -42 -12 c-74 -22 -70 -52 -71 553 -1 457 1 540 14 554 15 17 96
24 146 14z"/>
<path d="M6145 15097 c-14 -22 -15 -84 -13 -561 l3 -536 59 -56 c71 -67 90
-75 184 -76 39 -1 72 -5 72 -9 0 -5 5 -9 10 -9 6 0 10 7 10 16 0 13 7 16 33
12 30 -5 97 11 96 22 0 3 4 17 10 32 13 34 3 88 -15 88 -8 0 -14 6 -14 14 0 7
-10 24 -22 38 -13 13 -38 48 -56 78 -30 48 -32 56 -21 77 10 19 11 28 1 44
-10 16 -10 25 0 47 11 21 22 28 56 33 23 3 47 10 53 16 7 7 12 37 12 67 0 53
-3 59 -45 104 -70 75 -77 90 -76 162 0 36 5 71 10 78 7 8 7 17 -2 27 -19 23
-2 35 50 35 46 0 49 2 59 33 17 53 0 101 -58 159 -28 28 -51 55 -51 59 0 13
-101 26 -217 28 -108 2 -112 2 -128 -22z m268 -29 c14 -7 17 -19 15 -51 l-3
-42 -55 -3 c-37 -2 -59 -8 -67 -19 -9 -12 -13 -63 -13 -168 0 -105 4 -156 13
-168 8 -11 30 -17 67 -19 l55 -3 3 -44 c4 -53 -5 -61 -74 -61 -32 0 -54 -5
-57 -12 -10 -28 -8 -298 2 -317 9 -16 23 -21 69 -23 l57 -3 3 -46 3 -46 -104
-11 c-133 -14 -143 -12 -150 41 -2 23 -4 255 -3 515 1 408 3 474 16 482 19 13
199 11 223 -2z"/>
<path d="M6688 15112 c-19 -4 -21 -15 -19 -92 3 -76 10 -94 53 -125 22 -16 46
-43 53 -60 10 -23 13 -125 12 -414 l0 -384 64 -59 c78 -71 96 -79 180 -81 89
-1 104 11 105 86 0 31 -4 57 -9 57 -5 0 -6 12 -3 28 12 49 14 122 4 122 -7 0
-7 4 -1 13 6 7 9 105 7 247 -1 129 1 237 6 240 5 3 2 19 -6 36 -13 27 -13 34
0 60 12 23 26 31 63 39 44 9 48 13 53 46 9 55 -9 92 -86 172 l-70 74 -195 -1
c-106 0 -202 -2 -211 -4z m365 -44 c14 -7 17 -19 15 -51 l-3 -42 -50 -3 c-27
-2 -54 -7 -59 -13 -6 -5 -11 -186 -13 -441 -2 -238 -6 -439 -8 -445 -4 -11
-89 -20 -97 -10 -1 1 -5 205 -8 452 l-5 450 -50 3 c-27 2 -53 9 -57 15 -11 17
-10 55 2 77 9 17 24 18 162 18 84 0 161 -4 171 -10z"/>
<path d="M7354 15099 c-10 -11 -12 -19 -6 -19 7 0 12 -7 12 -15 0 -8 -5 -15
-11 -15 -6 0 -8 -9 -4 -21 4 -12 7 -236 6 -498 l0 -477 27 -30 c38 -39 100
-92 125 -106 11 -5 53 -11 93 -12 95 -3 103 4 101 102 -1 39 2 72 7 72 5 0 5
15 1 33 -7 36 -8 60 -6 164 1 68 2 72 24 71 62 -3 77 2 92 32 29 55 20 93 -37
162 -29 35 -57 68 -64 73 -6 6 -14 22 -18 38 -5 20 -3 27 9 27 8 0 15 5 15 10
0 6 -5 10 -11 10 -6 0 -9 9 -6 20 3 11 2 20 -1 20 -4 0 -7 15 -7 32 0 24 5 34
18 36 18 4 18 4 0 18 -16 13 -15 15 22 13 66 -3 75 0 85 26 5 14 15 25 22 25
6 0 3 6 -7 14 -16 12 -17 16 -6 30 9 11 10 16 2 16 -6 0 -11 6 -11 14 0 8 -34
46 -76 85 l-75 71 -149 -2 c-132 -1 -151 -3 -166 -19z m283 -32 c14 -17 23
-71 15 -84 -4 -7 -37 -13 -72 -15 l-65 -3 -3 -160 c-4 -212 -6 -205 68 -205
67 0 81 -13 73 -68 -6 -35 -15 -40 -93 -44 l-45 -3 -5 -205 -5 -205 -50 0 -50
0 -3 489 c-1 311 1 493 8 501 14 17 214 19 227 2z"/>
<path d="M7994 15113 c-15 -3 -24 -14 -28 -36 -3 -18 -6 -258 -6 -535 l0 -503
70 -70 c38 -38 73 -69 77 -70 5 0 22 -2 38 -4 17 -3 77 -7 134 -9 70 -4 107
-10 113 -18 6 -10 8 -10 8 0 0 13 26 17 33 5 2 -5 2 -2 1 5 -2 6 3 12 11 12
17 0 20 16 6 25 -5 3 -8 26 -7 51 3 32 -2 51 -15 67 -10 12 -42 53 -70 91
l-52 70 0 148 c0 82 3 151 6 155 3 3 -1 16 -9 28 -9 14 -12 33 -8 49 10 39 11
217 2 245 -5 13 -4 28 1 35 6 7 7 27 1 50 -5 21 -6 44 -3 52 5 15 -121 142
-155 155 -23 9 -108 10 -148 2z m101 -47 c18 -13 19 -36 19 -447 1 -239 5
-440 9 -446 5 -8 30 -13 61 -13 60 0 76 -12 76 -55 0 -56 -7 -59 -127 -51 -79
5 -111 11 -119 22 -9 11 -12 150 -12 495 0 410 2 482 15 494 18 19 53 19 78 1z"/>
<path d="M8548 15108 c-19 -16 -31 -119 -18 -154 6 -14 6 -26 -1 -29 -5 -4 -7
-10 -4 -15 3 -5 5 -143 5 -307 -2 -570 -2 -573 18 -603 30 -48 94 -109 131
-125 20 -9 44 -20 53 -25 10 -6 39 -5 75 0 32 6 60 10 63 10 8 0 5 134 -3 148
-5 6 -5 17 -1 23 8 14 8 145 0 158 -4 5 2 14 11 20 10 6 13 11 7 11 -7 0 -10
70 -11 213 0 116 -2 247 -4 290 -2 60 0 81 12 88 12 8 12 11 -2 19 -12 7 -15
20 -11 58 5 55 -8 87 -60 143 -62 69 -103 89 -177 89 -39 0 -74 -5 -83 -12z
m120 -41 c8 -9 12 -175 13 -517 1 -466 0 -504 -16 -516 -9 -7 -22 -11 -28 -9
-7 2 -24 6 -39 9 l-28 6 0 510 c0 474 1 510 18 519 24 15 68 13 80 -2z"/>
<path d="M9018 15109 c-12 -8 -3 -135 12 -175 5 -13 11 -46 12 -74 2 -27 6
-50 9 -50 7 0 11 -15 34 -140 16 -92 12 -191 -11 -270 -8 -25 -14 -60 -14 -78
0 -18 -4 -41 -9 -50 -4 -9 -11 -51 -14 -92 -4 -41 -11 -101 -17 -133 -9 -49
-9 -62 4 -82 18 -28 99 -95 114 -95 6 0 16 -8 21 -18 11 -20 93 -52 133 -52
15 0 33 8 40 18 25 34 38 35 76 5 31 -25 80 -44 173 -69 33 -9 48 22 42 86 -4
46 -2 60 8 61 8 0 4 4 -8 9 -16 7 -21 14 -16 26 5 13 3 15 -8 9 -12 -8 -12 -6
-1 8 8 9 10 22 6 28 -4 7 -9 24 -10 38 -2 14 -10 61 -19 105 -9 43 -14 84 -11
91 2 7 0 17 -5 22 -5 5 -12 41 -16 79 -3 38 -10 75 -15 81 -6 7 -7 21 -2 30 8
18 13 62 13 116 1 15 5 27 11 27 5 0 10 15 9 33 -1 17 2 46 6 62 3 17 7 41 9
55 2 14 5 27 6 30 4 6 9 67 9 103 0 16 4 26 9 23 4 -2 8 10 8 29 0 19 -3 32
-7 29 -4 -2 -5 5 -2 16 4 16 -8 34 -49 73 -30 29 -59 61 -65 72 -8 14 -25 19
-86 22 -80 4 -127 -8 -127 -31 0 -25 -20 -29 -43 -8 -39 35 -66 43 -133 40
-36 -2 -70 -6 -76 -9z m143 -45 c11 -10 21 -45 29 -102 19 -139 36 -216 47
-219 11 -4 26 60 45 187 6 47 18 100 25 118 12 28 18 32 51 32 72 0 72 9 25
-277 -42 -257 -42 -258 -28 -348 28 -180 58 -411 59 -455 l1 -45 -40 3 c-84 6
-77 -6 -101 187 -24 192 -25 198 -30 223 -10 50 -21 15 -38 -120 -21 -177 -34
-250 -45 -261 -4 -4 -30 -4 -57 0 -48 9 -49 9 -47 43 1 19 4 49 7 65 3 17 10
59 16 95 6 36 13 73 16 84 6 18 45 282 45 301 0 6 -10 60 -22 120 -11 61 -22
117 -24 125 -7 44 -19 101 -31 150 -19 72 -18 98 3 102 47 9 79 6 94 -8z"/>
<path d="M80 15061 c-11 -11 -14 -124 -15 -530 l-2 -516 42 -40 c80 -78 115
-103 154 -109 22 -3 46 -3 54 0 9 3 25 0 36 -6 17 -9 22 -8 27 5 3 8 12 15 20
15 15 0 16 6 19 170 1 58 5 119 9 137 6 25 3 34 -11 43 -13 8 -14 13 -5 16 6
3 12 17 12 30 0 16 6 24 18 25 79 4 114 32 109 89 -2 19 -10 47 -18 61 -18 34
-86 109 -99 109 -15 0 -22 62 -11 109 8 35 6 49 -6 67 -14 22 -11 28 9 25 4 0
10 8 13 19 5 16 15 20 51 20 39 0 46 3 55 27 6 15 8 42 4 60 -3 18 -6 35 -5
38 0 3 -21 26 -47 50 -27 25 -60 57 -75 72 -27 27 -28 27 -176 27 -115 1 -152
-2 -162 -13z m278 -37 c9 -2 12 -18 10 -46 l-3 -43 -62 -5 c-34 -3 -65 -8 -68
-12 -11 -10 -13 -320 -3 -340 6 -13 24 -18 71 -20 l62 -3 3 -44 c4 -54 -5 -61
-79 -61 -46 0 -57 -3 -61 -17 -2 -10 -3 -97 -2 -193 1 -96 -2 -183 -7 -192
-12 -22 -81 -25 -98 -4 -17 20 -15 960 2 974 20 17 189 21 235 6z"/>
<path d="M760 15073 c-36 -2 -69 -8 -74 -13 -7 -7 -11 -591 -7 -983 l1 -78 62
-65 c34 -35 70 -64 79 -64 10 0 19 -4 21 -9 2 -4 54 -11 117 -15 62 -3 117 -8
121 -11 9 -6 60 14 75 30 13 13 11 80 -2 97 -6 7 -13 23 -17 34 -6 20 -24 45
-59 84 -48 54 -77 131 -58 154 6 7 6 27 1 49 -4 21 -4 39 1 43 11 7 12 71 1
76 -5 2 -12 20 -15 41 -5 33 -4 37 8 27 20 -17 20 2 -1 41 -12 23 -13 34 -4
44 9 11 9 27 1 66 -9 41 -9 54 1 60 7 4 9 11 5 15 -4 4 -3 12 3 19 6 7 4 21
-5 39 -14 25 -13 28 1 22 13 -5 14 -4 6 7 -9 10 -9 16 0 25 9 9 7 16 -7 32
-14 15 -15 23 -6 34 9 10 9 20 -1 42 -16 37 -148 164 -168 162 -8 -1 -44 -3
-80 -5z m68 -490 c2 -437 2 -443 23 -454 11 -6 31 -8 44 -5 58 15 103 -42 75
-95 -12 -21 -16 -21 -124 -14 -61 3 -114 10 -119 14 -9 9 -11 976 -2 991 4 6
28 10 53 8 l47 -3 3 -442z"/>
<path d="M1320 15073 c-30 -3 -60 -9 -67 -15 -10 -8 -13 -125 -13 -535 0 -288
-2 -528 -5 -533 -3 -4 11 -22 30 -39 19 -17 35 -33 35 -36 0 -3 19 -22 41 -44
35 -33 53 -41 121 -55 83 -16 98 -15 98 10 0 8 9 14 20 14 21 0 28 26 8 32 -7
3 -9 14 -4 33 6 23 9 26 17 14 5 -7 9 -9 9 -3 0 6 -6 17 -14 23 -17 14 -20
132 -3 143 9 6 9 8 0 8 -8 0 -13 13 -13 30 0 17 5 30 10 30 6 0 10 7 10 15 0
8 -4 15 -9 15 -10 0 -9 550 2 567 4 6 3 14 -3 18 -14 9 -12 45 3 45 9 0 9 2
-1 8 -8 6 -11 24 -7 56 3 29 1 45 -5 41 -6 -4 -14 2 -18 13 -18 49 -135 153
-167 150 -11 -1 -45 -3 -75 -5z m68 -60 c10 -19 15 -976 6 -1005 -4 -14 -16
-18 -49 -18 -24 0 -47 6 -52 13 -7 12 -12 947 -5 999 4 26 8 28 48 28 31 0 46
-5 52 -17z"/>
<path d="M1733 15063 c-18 -12 -19 -19 -11 -56 4 -23 15 -82 24 -131 8 -50 18
-95 22 -100 3 -6 10 -33 14 -61 4 -27 12 -75 17 -105 16 -86 19 -114 11 -125
-4 -5 -10 -37 -13 -70 -7 -68 -24 -162 -33 -176 -3 -5 -10 -46 -15 -92 -15
-128 -15 -130 -23 -164 -6 -27 -2 -39 25 -73 18 -22 38 -40 46 -40 7 0 18 -9
25 -20 7 -11 18 -20 25 -20 7 0 16 -6 20 -13 12 -19 60 -47 82 -47 11 0 21 -6
24 -12 3 -10 7 -10 19 0 9 7 18 9 20 4 1 -5 21 -1 43 9 30 14 35 19 18 19 -22
0 -30 10 -17 22 7 8 84 -30 84 -42 0 -5 18 -14 40 -20 22 -6 40 -15 40 -20 0
-5 8 -8 18 -8 9 0 22 0 27 -2 6 -1 22 -2 38 -1 20 1 27 6 27 21 0 11 5 20 12
20 6 0 8 3 5 7 -4 3 -2 12 4 20 7 8 8 13 1 13 -5 0 -14 18 -20 40 -6 26 -6 40
0 40 5 0 8 6 5 13 -2 6 -10 11 -16 10 -6 -2 -11 11 -11 31 0 19 -10 78 -21
132 -12 55 -21 113 -20 131 0 18 -4 35 -9 38 -6 3 -10 28 -10 55 0 27 -5 52
-10 55 -6 4 -8 16 -4 28 4 12 9 40 10 62 1 22 2 46 3 53 1 6 8 12 16 12 13 0
13 3 3 21 -11 17 -10 22 4 33 10 7 14 16 10 20 -10 11 -11 66 0 66 5 0 7 9 3
19 -3 11 -2 22 4 25 5 3 7 15 4 26 -3 11 -1 20 3 20 5 0 9 12 9 28 1 15 4 57
8 93 l8 65 -50 54 c-28 30 -51 58 -51 62 0 4 -7 8 -15 8 -7 0 -18 7 -23 16
-10 19 -97 30 -107 14 -4 -6 -12 -7 -18 -3 -22 14 -52 8 -70 -14 -23 -28 -35
-29 -62 -3 -27 25 -160 34 -192 13z m398 -44 c5 -8 7 -27 4 -44 -13 -63 -61
-330 -75 -412 -8 -48 -5 -87 15 -203 3 -19 12 -82 20 -140 8 -58 20 -143 28
-190 7 -47 12 -91 9 -98 -5 -17 -108 -16 -115 1 -6 15 -18 91 -45 286 -19 135
-37 166 -45 79 -18 -194 -39 -334 -51 -343 -8 -6 -33 -9 -55 -7 -49 5 -65 26
-51 68 11 34 36 186 56 338 7 59 18 123 23 142 5 19 6 49 0 71 -4 21 -24 119
-43 218 -19 100 -38 189 -42 198 -11 29 14 47 67 47 47 0 48 -1 58 -37 6 -21
14 -67 17 -103 6 -62 29 -168 38 -178 10 -9 26 10 26 32 0 13 4 36 9 52 5 16
14 67 21 114 6 47 14 93 16 102 8 27 98 32 115 7z"/>
<path d="M6015 14280 c-3 -5 -1 -10 4 -10 6 0 11 5 11 10 0 6 -2 10 -4 10 -3
0 -8 -4 -11 -10z"/>
<path d="M8991 12278 c-10 -3 -21 -17 -24 -30 -7 -33 -1 -1137 7 -1145 3 -3 6
-14 6 -24 0 -18 77 -86 120 -106 37 -17 111 -23 134 -11 12 6 29 19 39 29 21
23 39 23 100 5 35 -10 64 -11 129 -4 46 5 95 9 110 9 21 -1 26 3 22 14 -4 8
-11 15 -16 15 -6 0 -5 7 3 16 13 16 13 51 9 491 -1 105 1 196 4 202 4 5 2 12
-4 16 -6 4 -7 13 -1 23 8 16 8 59 -2 142 -2 19 -1 45 4 56 4 12 3 26 -2 31 -5
5 -5 23 1 43 17 63 -3 100 -102 183 l-56 48 -83 0 c-79 0 -84 -1 -102 -26
l-20 -26 -26 25 c-24 23 -35 25 -129 28 -57 2 -112 0 -121 -4z m159 -38 c39 0
46 -16 64 -151 9 -63 22 -159 30 -214 8 -55 22 -149 30 -210 24 -167 30 -198
44 -203 9 -3 12 84 14 385 l3 388 50 0 50 0 3 -537 2 -536 -27 -6 c-81 -15
-150 -17 -160 -4 -6 7 -18 63 -27 123 -15 99 -25 161 -41 265 -3 19 -12 85
-20 145 -21 160 -24 175 -40 175 -12 0 -14 -16 -11 -87 4 -70 9 -584 7 -630
-1 -15 -73 -35 -95 -27 -14 5 -16 36 -16 253 -1 593 1 842 6 855 5 14 64 26
92 19 8 -2 27 -3 42 -3z"/>
<path d="M9854 12282 c-63 -2 -72 -5 -80 -25 -6 -13 -9 -249 -8 -549 1 -493 2
-529 19 -555 10 -15 30 -37 43 -47 13 -11 32 -27 41 -36 35 -35 141 -45 286
-25 76 10 90 23 86 79 -2 46 -28 96 -69 138 -52 53 -59 72 -61 162 -2 65 1 77
13 73 8 -3 17 1 20 10 5 11 14 14 35 10 23 -5 32 -1 50 23 24 33 25 41 11 90
-9 30 -29 59 -93 130 -23 25 -30 52 -32 125 -2 103 4 119 48 121 22 2 47 12
62 26 23 21 24 27 14 58 -7 19 -16 42 -21 50 -5 8 -11 23 -14 33 -4 9 -11 17
-18 17 -6 0 -25 16 -41 36 -17 20 -39 41 -49 46 -20 11 -122 15 -242 10z m204
-54 c14 -14 16 -57 2 -78 -5 -9 -31 -17 -67 -20 l-58 -5 0 -175 0 -175 55 -5
c74 -7 82 -13 76 -63 -3 -23 -5 -43 -5 -44 -1 -2 -25 -3 -54 -3 -29 0 -58 -5
-65 -12 -8 -8 -12 -60 -12 -170 0 -178 1 -181 78 -171 38 5 42 3 52 -21 26
-68 7 -82 -125 -91 -66 -5 -110 -4 -116 2 -11 11 -15 1015 -5 1032 10 16 228
15 244 -1z"/>
<path d="M10393 12282 c-89 -4 -98 -15 -90 -109 5 -48 13 -71 34 -98 15 -19
33 -35 39 -35 7 0 19 -11 27 -24 17 -26 18 -32 17 -528 0 -261 6 -318 33 -318
5 0 23 -13 39 -30 15 -16 33 -30 38 -30 6 0 10 -7 10 -15 0 -24 66 -34 176
-26 30 2 59 47 44 67 -10 11 -9 15 5 20 13 5 14 9 4 15 -16 9 -14 131 2 161 7
13 6 29 -2 53 -10 27 -10 38 -1 47 7 7 8 17 2 29 -6 9 -10 39 -10 66 0 26 0
62 0 78 0 17 5 40 12 53 9 17 9 31 1 55 -6 18 -10 68 -9 112 1 44 -2 88 -6 97
-9 20 11 60 27 55 5 -2 23 4 38 14 16 9 37 15 47 12 15 -4 17 1 16 41 -3 58
-28 103 -99 177 l-57 60 -133 2 c-72 1 -165 1 -204 -1z m305 -89 c4 -49 -14
-63 -72 -61 -20 1 -38 -1 -41 -3 -2 -3 -5 -199 -6 -436 0 -313 -4 -435 -12
-446 -16 -19 -84 -29 -94 -14 -5 7 -8 208 -8 449 0 240 -3 439 -6 442 -3 4
-28 8 -54 10 -26 2 -50 9 -54 14 -4 6 -5 29 -3 52 l4 40 172 -2 171 -3 3 -42z"/>
<path d="M11045 12282 c-22 -2 -44 -8 -50 -13 -6 -6 -10 -205 -11 -529 l-2
-519 69 -65 c76 -72 119 -90 208 -87 79 2 84 9 76 109 -4 58 -2 88 6 98 6 8 7
14 2 14 -5 0 -9 23 -9 50 0 28 4 50 10 50 6 0 5 5 -2 12 -17 17 -15 87 3 104
10 10 30 14 56 13 46 -4 60 11 65 70 4 43 -23 90 -85 149 -42 41 -46 48 -52
110 -4 37 -3 71 1 76 5 5 6 21 3 36 -4 23 -1 29 18 36 13 4 36 6 52 5 15 -1
27 2 27 8 0 5 8 12 19 16 13 4 17 12 14 29 -3 13 0 33 6 45 9 17 9 21 -1 19
-7 -2 -12 2 -11 9 3 12 -18 35 -100 111 -45 42 -46 42 -124 43 -43 1 -94 2
-113 3 -19 0 -53 0 -75 -2z m238 -74 c3 -20 -1 -42 -9 -55 -12 -19 -23 -23
-68 -23 -40 0 -55 -4 -60 -16 -12 -31 -7 -319 6 -332 7 -7 35 -12 64 -12 68 0
74 -9 65 -97 -1 -9 -19 -13 -55 -13 -92 0 -86 14 -86 -211 0 -190 -1 -199 -21
-209 -25 -14 -75 -4 -83 16 -8 20 -7 949 0 969 5 12 27 15 124 15 l118 0 5
-32z"/>
<path d="M11603 12268 c-9 -15 -16 -913 -7 -1007 5 -57 10 -68 44 -102 21 -22
43 -39 49 -39 7 0 11 22 11 55 0 52 -1 55 -24 55 -14 0 -28 4 -31 10 -8 12 -8
977 0 990 3 6 17 10 31 10 17 0 24 5 24 20 0 17 -7 20 -44 20 -25 0 -48 -6
-53 -12z"/>
<path d="M2095 12189 c-4 -6 -18 -8 -32 -4 -19 4 -31 -1 -50 -22 l-26 -28 -28
26 c-27 25 -31 26 -140 23 -61 -1 -116 -7 -122 -13 -11 -11 -14 -1116 -3
-1167 7 -32 30 -56 101 -108 62 -46 186 -50 200 -6 8 24 41 35 60 20 8 -7 43
-13 77 -14 35 0 66 -5 69 -10 4 -4 16 -3 27 3 11 6 36 11 54 11 54 0 62 11 64
87 1 37 3 91 4 118 0 28 -1 69 -3 93 -2 23 0 42 5 42 5 0 6 10 3 21 -6 19 -8
308 -4 606 2 167 -8 195 -98 266 -55 45 -80 58 -100 56 -16 -2 -33 0 -40 4 -6
4 -15 2 -18 -4z m-186 -57 c6 -11 20 -89 31 -173 34 -251 40 -291 50 -354 14
-89 29 -198 30 -212 0 -7 7 -13 15 -13 14 0 16 45 15 377 -1 356 0 378 17 384
30 12 70 10 82 -5 13 -16 16 -1055 3 -1068 -16 -16 -166 -28 -179 -15 -11 11
-22 74 -43 237 -9 70 -19 134 -50 330 -11 69 -20 132 -20 140 0 10 -3 11 -12
2 -8 -8 -10 -69 -9 -204 2 -106 3 -260 4 -342 2 -156 -4 -188 -38 -191 -11 -2
-27 -5 -36 -9 -38 -16 -40 3 -40 565 -1 472 1 544 14 554 8 6 47 12 86 13 60
2 71 0 80 -16z"/>
<path d="M2605 12189 c-22 -4 -49 -5 -60 -3 -11 3 -29 -1 -39 -9 -19 -14 -20
-33 -19 -563 l0 -549 58 -52 c32 -29 64 -53 72 -53 7 0 13 -4 13 -10 0 -6 55
-8 147 -6 145 4 148 5 170 31 13 14 23 34 23 45 0 10 3 27 7 37 6 16 5 16 -10
4 -15 -12 -17 -11 -17 9 0 12 -20 48 -45 80 -25 32 -45 61 -45 65 0 4 -7 13
-15 21 -17 17 -21 108 -6 147 10 25 40 38 94 43 36 2 41 8 27 33 -7 14 -7 21
0 21 13 0 13 37 0 45 -5 3 -10 13 -10 22 0 8 -26 46 -57 83 l-57 68 -1 97 c-1
84 1 98 18 106 10 6 28 9 40 7 39 -5 65 23 65 67 0 55 -21 90 -91 157 l-61 56
-60 -2 c-34 -2 -70 0 -81 4 -11 3 -38 3 -60 -1z m169 -55 c18 -17 18 -20 10
-63 -6 -30 -8 -31 -58 -31 -28 0 -57 -4 -64 -8 -9 -7 -12 -50 -10 -183 3 -146
5 -174 18 -175 8 -1 36 -2 61 -3 45 -1 47 -2 53 -36 11 -56 -5 -74 -72 -77
l-57 -3 0 -170 0 -170 55 -3 c67 -4 76 -11 75 -59 0 -36 -2 -38 -40 -45 -53
-9 -203 -14 -211 -6 -9 10 -10 1021 -1 1036 13 19 221 17 241 -4z"/>
<path d="M5739 12189 c-7 -5 -27 -6 -43 -3 -31 7 -76 -12 -76 -32 0 -24 -17
-23 -54 4 -32 22 -50 27 -112 29 -62 2 -75 0 -83 -15 -10 -19 -5 -91 9 -132 5
-14 12 -45 15 -70 3 -25 10 -67 16 -95 5 -27 13 -66 16 -85 3 -19 9 -39 13
-45 16 -22 9 -153 -15 -293 -15 -81 -31 -178 -36 -217 -5 -38 -13 -94 -18
-124 -12 -66 1 -89 84 -146 30 -21 55 -42 55 -45 0 -13 54 -30 123 -38 66 -8
67 -8 67 15 0 30 13 29 67 -7 24 -16 51 -30 59 -30 7 0 14 -4 14 -9 0 -4 26
-11 57 -14 46 -5 59 -3 69 11 7 9 18 17 25 17 7 0 14 6 17 13 2 6 -3 12 -12
12 -16 0 -20 14 -16 58 1 12 -3 22 -8 22 -5 0 -12 21 -15 48 -15 115 -20 142
-29 142 -6 0 -8 14 -4 36 4 19 3 41 -3 47 -5 7 -10 15 -10 20 -1 4 -1 8 -2 10
0 1 -3 25 -5 52 -3 28 -9 62 -15 76 -16 41 6 279 27 292 10 5 13 27 11 72 -2
35 0 62 4 60 10 -7 18 46 12 78 -3 16 -1 27 6 27 6 0 11 -7 11 -17 0 -9 2 -14
5 -12 2 3 0 33 -5 67 -9 63 -52 141 -77 142 -7 0 -13 5 -13 11 0 16 -48 59
-66 59 -9 0 -23 4 -33 9 -10 6 -23 6 -32 0z m-229 -49 c13 -7 21 -26 25 -58
11 -92 37 -227 47 -252 9 -23 10 -23 20 -6 5 9 19 77 29 149 23 156 33 176 89
175 59 -1 64 -13 47 -105 -9 -43 -25 -134 -37 -203 -12 -69 -26 -143 -30 -165
-9 -39 -7 -61 30 -295 6 -36 15 -103 20 -150 6 -47 14 -103 20 -125 18 -75 17
-76 -47 -73 -50 3 -59 6 -69 28 -10 21 -24 119 -51 348 -5 40 -19 56 -28 30
-2 -7 -9 -53 -15 -103 -23 -205 -32 -261 -43 -271 -8 -8 -29 -9 -57 -5 -41 5
-45 9 -48 36 -2 16 2 56 8 90 17 86 19 97 36 204 9 53 17 107 20 121 2 14 7
48 12 75 5 32 4 76 -4 120 -21 118 -44 238 -55 285 -15 64 -22 128 -15 145 6
17 67 20 96 5z"/>
<path d="M3055 12182 c-29 -6 -35 -20 -35 -79 0 -69 9 -88 69 -151 l51 -52 0
-128 c1 -70 1 -247 0 -395 l0 -268 23 -22 c122 -115 126 -118 204 -119 68 -1
102 10 107 36 14 68 24 415 12 419 -5 2 -3 13 5 24 7 12 10 26 6 30 -5 4 -12
1 -18 -7 -11 -19 0 47 13 73 5 10 5 17 0 17 -5 0 -9 11 -9 25 0 14 3 25 8 25
5 0 9 5 9 11 0 5 -4 8 -9 5 -5 -3 -7 18 -6 47 2 28 -2 58 -8 65 -8 10 -7 16 3
22 7 5 11 18 8 34 -3 14 0 27 6 30 7 3 6 8 -3 14 -23 16 36 65 70 58 23 -4 27
-1 37 32 21 69 7 102 -74 183 l-74 74 -188 1 c-103 1 -196 -1 -207 -4z m353
-41 c9 -5 12 -24 10 -52 l-3 -44 -50 -3 c-27 -2 -53 -7 -58 -11 -4 -4 -8 -203
-8 -442 -1 -283 -4 -438 -11 -446 -13 -16 -84 -17 -94 -1 -4 6 -7 206 -7 445
0 257 -3 436 -9 439 -5 3 -30 9 -55 12 -42 6 -48 10 -55 40 -5 20 -5 40 2 51
9 18 22 20 168 20 86 0 163 -4 170 -8z"/>
<path d="M3715 12165 c-9 -15 -12 -142 -11 -533 l1 -513 65 -60 c36 -34 76
-66 90 -71 38 -16 150 -11 171 8 16 14 18 14 21 -8 2 -13 2 73 0 191 -2 149 1
218 9 227 6 8 30 14 54 14 45 0 59 15 68 74 6 39 -36 118 -81 153 -19 14 -31
31 -28 39 3 8 0 11 -8 8 -10 -4 -14 7 -14 46 0 38 4 50 13 46 10 -4 10 1 -1
22 -8 15 -14 36 -14 47 0 24 30 53 48 47 7 -2 12 1 12 7 0 6 9 11 19 11 11 0
22 4 26 10 3 5 12 7 20 3 18 -6 19 8 4 75 -8 41 -19 57 -60 93 -28 24 -62 54
-76 66 -24 21 -33 22 -170 20 -134 -2 -147 -3 -158 -22z m280 -26 c13 -20 11
-80 -3 -92 -7 -6 -34 -10 -59 -8 -24 1 -51 -3 -58 -9 -19 -16 -21 -333 -2
-348 7 -6 36 -10 65 -10 28 1 55 -2 59 -5 10 -11 11 -70 1 -89 -7 -14 -21 -18
-61 -18 -29 0 -58 -5 -65 -12 -9 -9 -12 -68 -12 -205 0 -173 -2 -193 -17 -201
-30 -16 -80 -3 -87 22 -3 11 -6 231 -6 488 0 411 2 468 16 482 12 13 38 16
119 16 63 0 106 -4 110 -11z"/>
<path d="M4320 12164 c-5 -12 -9 -253 -9 -535 l0 -512 62 -65 c73 -75 103 -90
194 -93 37 -2 73 -7 80 -12 7 -5 19 -5 29 1 10 5 34 7 54 5 31 -4 40 -1 59 22
14 19 19 35 15 49 -4 12 -8 31 -10 44 -2 22 -11 37 -42 72 -41 47 -62 76 -62
85 0 6 -9 18 -20 28 -20 16 -21 34 -5 70 4 11 3 23 -4 30 -13 13 -15 47 -2 47
9 0 8 76 -1 85 -2 2 -3 41 -1 85 2 45 -1 90 -7 100 -7 13 -7 21 1 25 7 5 9 55
7 146 -2 86 1 141 7 144 6 3 5 7 -2 11 -7 3 -13 15 -13 25 0 21 -131 158 -153
160 -7 1 -47 3 -91 3 -72 2 -79 0 -86 -20z m135 -37 c9 -13 12 -112 11 -434
-1 -230 2 -426 7 -435 6 -13 20 -18 53 -18 66 0 84 -13 84 -59 0 -21 -6 -43
-12 -48 -13 -10 -172 -8 -215 2 -27 6 -26 -29 -24 589 1 247 6 404 12 412 14
17 69 11 84 -9z"/>
<path d="M4922 12183 c-32 -6 -43 -35 -42 -111 1 -37 1 -78 0 -92 0 -14 0
-219 0 -457 l1 -431 37 -44 c58 -67 104 -108 123 -108 10 0 21 -5 24 -10 4 -6
23 -10 43 -10 20 1 54 -1 75 -4 22 -3 37 -2 37 4 0 6 -6 10 -12 10 -8 0 -6 5
4 10 12 7 15 21 13 52 -2 24 -4 45 -5 48 -1 3 -1 10 1 15 2 6 4 120 5 255 2
135 4 254 5 265 2 11 -1 49 -5 83 -6 51 -5 62 6 56 10 -5 11 -4 1 7 -7 7 -13
32 -13 55 0 25 5 44 13 47 8 4 9 8 1 14 -11 8 -13 118 -2 128 3 4 0 18 -8 33
-8 15 -14 33 -14 40 0 6 -4 12 -10 12 -5 0 -10 6 -10 14 0 8 -7 16 -15 20 -8
3 -15 12 -15 21 0 8 -3 15 -8 15 -4 0 -19 10 -33 23 -14 12 -35 28 -47 35 -21
11 -101 14 -150 5z m107 -47 c5 -6 8 -233 8 -521 l-2 -510 -43 -3 c-24 -2 -50
2 -58 9 -12 10 -14 91 -14 515 0 469 1 504 18 513 22 13 80 11 91 -3z"/>
<path d="M9155 10940 c-3 -5 -1 -10 4 -10 6 0 11 5 11 10 0 6 -2 10 -4 10 -3
0 -8 -4 -11 -10z"/>
<path d="M100 9421 l-55 -6 -2 -525 -2 -525 26 -27 c15 -16 31 -28 35 -28 5 0
22 -15 39 -34 33 -38 67 -52 148 -61 68 -7 91 0 91 27 0 11 8 27 18 34 12 10
14 16 5 22 -8 5 -11 30 -8 79 3 40 1 74 -4 78 -6 3 -6 18 -1 37 5 17 7 34 5
39 -3 4 1 9 7 12 10 3 10 9 0 27 -28 46 16 107 68 93 32 -8 55 24 55 79 0 26
-3 48 -6 48 -4 0 -12 14 -19 30 -7 17 -26 38 -41 47 -16 10 -29 22 -29 27 0 5
-10 20 -22 33 -20 21 -21 28 -12 63 8 26 8 42 1 49 -7 7 -6 15 2 25 9 11 9 15
0 18 -18 6 -3 53 18 56 73 7 98 18 101 42 1 14 4 40 6 58 2 17 0 32 -5 32 -5
0 -9 5 -9 12 0 7 -30 41 -68 76 l-67 64 -110 2 c-60 1 -135 0 -165 -3z m238
-44 c14 -10 16 -83 2 -92 -5 -3 -33 -6 -60 -7 -77 0 -79 -4 -78 -183 1 -84 4
-159 9 -166 4 -6 36 -15 70 -18 l64 -6 3 -44 c4 -54 -5 -61 -79 -61 -46 0 -58
-3 -61 -17 -3 -10 -4 -99 -3 -198 1 -99 0 -186 -3 -192 -2 -8 -23 -13 -53 -13
-42 0 -49 3 -54 23 -3 12 -5 236 -3 497 l3 474 25 6 c35 9 202 6 218 -3z"/>
<path d="M664 9419 c-2 -4 -5 -39 -5 -78 -1 -39 -5 -74 -11 -77 -5 -3 -5 -10
0 -17 5 -7 9 -208 10 -455 l0 -443 61 -64 c34 -35 63 -64 64 -63 1 1 11 -4 23
-10 24 -13 261 -27 309 -18 34 7 34 7 30 54 -3 26 -10 58 -16 72 -7 14 -16 35
-22 47 -5 11 -22 35 -38 53 -16 17 -29 35 -29 39 0 5 -10 15 -22 23 -21 14
-22 21 -20 159 1 79 4 156 7 170 4 15 2 30 -4 33 -6 4 -8 28 -5 59 10 95 10
142 -1 160 -7 12 -7 20 1 25 13 8 13 100 0 120 -4 7 -3 19 4 27 7 8 8 15 3 15
-5 0 -16 15 -25 33 -9 18 -42 57 -75 87 l-59 55 -87 0 c-49 1 -90 -2 -93 -6z
m138 -45 c4 -3 8 -205 8 -448 l0 -443 38 -7 c20 -3 49 -6 64 -6 30 0 48 -24
48 -63 0 -44 -21 -51 -129 -43 -55 3 -106 9 -115 12 -14 5 -16 58 -16 494 0
269 3 496 6 505 6 14 15 16 47 11 22 -4 44 -9 49 -12z"/>
<path d="M1225 9403 c-3 -13 -5 -262 -4 -554 1 -509 2 -531 20 -542 10 -6 19
-17 19 -24 0 -6 9 -14 19 -18 11 -3 23 -14 26 -24 3 -10 14 -26 25 -36 34 -31
226 -68 217 -42 -2 7 2 17 10 22 7 6 14 24 14 40 0 17 -1 164 -3 328 -2 165 0
301 5 304 4 2 4 10 0 16 -9 15 -12 49 -5 61 9 15 9 57 0 62 -4 3 -6 55 -4 117
2 62 1 124 -1 139 -6 28 -132 166 -155 170 -7 1 -50 2 -95 2 -77 1 -82 0 -88
-21z m148 -32 c4 -4 6 -236 5 -517 l-3 -509 -44 -3 c-24 -2 -49 2 -55 8 -7 7
-11 146 -13 448 -3 495 1 579 26 585 19 6 73 -2 84 -12z"/>
<path d="M1767 9423 c-69 -5 -73 -11 -58 -90 6 -32 16 -89 22 -128 6 -38 15
-74 20 -79 5 -6 9 -25 9 -44 0 -18 4 -42 10 -52 5 -10 11 -33 13 -51 2 -19 7
-43 12 -53 5 -12 2 -55 -8 -110 -9 -50 -19 -116 -22 -146 -3 -30 -10 -66 -15
-80 -8 -23 -16 -71 -27 -165 -2 -22 -8 -58 -13 -79 -10 -47 7 -88 48 -114 67
-42 111 -78 112 -89 0 -7 11 -13 24 -13 14 0 28 -5 31 -11 4 -6 14 -8 22 -4 9
3 25 -2 35 -12 16 -14 21 -15 28 -3 5 8 6 18 4 22 -3 4 7 8 23 8 20 0 24 3 14
9 -7 5 -10 14 -7 20 8 12 96 -45 96 -62 0 -5 6 -7 13 -4 6 2 20 0 29 -4 9 -5
44 -12 79 -15 54 -5 61 -4 56 10 -4 9 -2 16 2 16 14 0 22 31 12 44 -5 6 -12
28 -16 49 -4 20 -11 40 -16 42 -4 3 -4 17 1 30 6 15 6 27 0 30 -6 4 -10 17
-10 30 0 13 -4 26 -9 29 -4 3 -11 40 -15 82 -3 42 -11 83 -17 90 -6 8 -8 26
-4 45 6 24 4 30 -6 24 -9 -6 -11 -3 -6 8 3 9 2 19 -3 22 -5 3 -2 21 6 40 12
30 12 34 -1 29 -12 -5 -15 2 -15 34 0 23 4 43 9 46 5 3 7 15 4 26 -3 11 1 30
9 42 9 14 12 31 8 43 -4 11 -4 25 1 31 4 5 11 37 13 70 3 32 8 73 10 89 10 67
18 112 26 147 7 32 4 41 -24 74 -83 101 -130 132 -201 129 -105 -4 -105 -4
-115 -30 -6 -16 -14 -23 -25 -19 -8 3 -15 10 -15 15 0 12 -56 39 -77 37 -10
-1 -44 -3 -76 -5z m92 -48 c6 -6 15 -44 21 -85 26 -176 48 -257 63 -233 5 8
33 159 46 251 4 29 13 58 19 64 13 13 92 12 105 -1 5 -5 1 -48 -8 -96 -29
-157 -68 -390 -68 -410 0 -11 18 -147 41 -302 23 -156 42 -285 42 -288 0 -11
-109 -4 -117 8 -13 19 -32 117 -32 167 -1 25 -5 61 -11 80 -5 19 -11 60 -13
91 -2 31 -7 61 -11 67 -16 26 -26 10 -27 -40 0 -29 -10 -120 -22 -203 l-22
-150 -50 3 c-27 2 -54 8 -59 12 -5 5 -1 55 9 117 9 59 23 146 30 193 7 47 21
126 30 177 12 72 14 101 5 132 -11 41 -36 169 -66 338 -12 67 -14 96 -6 105
12 16 87 17 101 3z"/>
<path d="M7638 9365 c-3 -3 -65 -7 -139 -8 -74 -2 -140 -6 -146 -10 -10 -6
-13 -129 -12 -530 0 -495 1 -523 18 -544 11 -13 22 -23 25 -23 3 0 22 -18 42
-40 41 -45 89 -63 177 -65 68 -1 81 9 83 70 1 24 4 48 8 53 6 10 -2 121 -10
134 -3 4 0 8 5 8 6 0 11 7 11 15 0 8 -5 15 -11 15 -8 0 -8 4 0 14 8 9 9 21 4
33 -5 10 -6 36 -3 58 5 37 7 40 40 42 44 4 90 22 91 37 7 74 -15 124 -89 200
l-53 55 10 53 c5 29 7 66 4 82 -5 22 -1 33 18 47 13 10 31 19 40 19 8 0 27 6
42 13 24 11 27 17 26 64 -1 46 -6 57 -38 90 -20 21 -57 55 -82 75 -25 21 -48
40 -51 43 -2 3 -7 3 -10 0z m5 -80 c5 -14 6 -37 3 -50 -6 -23 -11 -25 -65 -25
-38 0 -63 -5 -70 -14 -14 -17 -14 -333 0 -342 6 -3 31 -6 57 -6 67 -1 82 -11
82 -57 0 -50 -13 -59 -85 -63 l-60 -3 -2 -194 c-1 -106 -4 -200 -7 -208 -4
-10 -19 -13 -53 -11 l-48 3 -3 497 -2 497 52 3 c29 2 84 3 123 1 65 -2 70 -4
78 -28z"/>
<path d="M9375 9358 c-9 -6 -27 -7 -41 -4 -39 10 -72 -3 -79 -31 l-6 -26 -29
28 c-25 24 -38 28 -102 30 -105 4 -118 0 -118 -40 0 -36 37 -229 49 -260 18
-42 43 -242 36 -291 -10 -82 -46 -287 -56 -324 -5 -19 -11 -60 -14 -90 -3 -30
-8 -71 -11 -91 -5 -31 -1 -39 28 -67 60 -58 110 -102 116 -102 3 0 13 -6 21
-14 9 -7 44 -19 78 -26 54 -11 64 -11 77 3 9 9 16 23 16 31 0 23 8 20 56 -20
24 -19 44 -32 44 -28 0 3 6 2 13 -3 19 -15 101 -35 128 -31 13 1 28 13 34 26
5 12 13 22 17 22 5 0 8 5 8 11 0 5 -4 7 -10 4 -5 -3 -10 -3 -11 2 -1 4 -3 25
-5 46 -1 21 -8 45 -15 53 -6 7 -9 24 -5 37 3 12 -1 35 -9 50 -8 15 -13 49 -13
76 1 28 -3 56 -9 63 -5 7 -10 35 -11 62 -1 27 -6 54 -12 61 -19 23 -17 289 2
301 4 3 6 10 2 15 -3 5 -1 15 4 22 5 7 12 41 15 77 3 36 13 79 21 95 20 39 21
137 1 179 -9 18 -40 56 -70 86 -58 57 -112 83 -140 68z m-226 -47 c13 -7 21
-33 30 -98 7 -48 16 -101 21 -118 4 -16 11 -52 15 -79 4 -32 10 -45 17 -38 9
9 46 192 55 280 4 29 11 46 25 53 21 11 94 3 103 -11 3 -5 -5 -67 -19 -137
-74 -392 -71 -329 -31 -598 46 -304 52 -351 45 -358 -4 -5 -29 -7 -56 -5 -63
4 -69 16 -88 189 -25 225 -47 291 -59 179 -11 -108 -38 -316 -42 -328 -3 -9
-21 -12 -56 -10 -57 3 -78 22 -64 54 5 11 14 55 21 99 7 44 23 141 35 215 12
74 22 167 22 205 1 69 -22 224 -41 288 -6 17 -13 55 -17 82 -4 28 -11 58 -17
68 -5 11 -7 29 -4 42 5 19 14 25 44 28 20 2 38 4 40 5 2 1 11 -2 21 -7z"/>
<path d="M5338 9343 c-14 -17 -19 -1156 -6 -1185 12 -24 47 -58 95 -91 59 -41
148 -49 192 -18 17 12 31 28 31 36 0 10 7 12 31 5 17 -5 36 -13 42 -18 18 -14
86 -22 92 -11 4 5 20 9 38 9 62 -1 117 12 117 26 0 8 6 14 13 14 10 0 13 13
11 45 -2 25 -6 50 -9 55 -3 6 -3 15 1 21 12 19 12 83 0 102 -9 14 -8 20 4 27
10 6 11 10 3 10 -10 0 -12 40 -7 178 5 175 5 203 0 312 -1 30 1 62 5 71 5 9 3
21 -2 26 -8 8 -7 17 1 33 7 13 8 26 2 33 -5 7 -8 56 -7 110 1 53 -2 97 -6 97
-4 0 -32 23 -61 51 -66 63 -96 77 -177 78 -71 1 -101 -11 -101 -39 0 -18 -3
-18 -40 9 -39 28 -45 29 -145 29 -79 0 -108 -4 -117 -15z m206 -42 c9 -8 16
-29 16 -50 0 -20 4 -52 9 -71 5 -19 14 -82 20 -140 7 -58 18 -139 26 -180 7
-41 21 -128 30 -192 10 -65 21 -118 26 -118 12 0 12 -8 13 395 l1 360 55 0 55
0 3 -515 c1 -283 0 -525 -3 -537 -4 -19 -14 -22 -91 -28 -52 -5 -89 -4 -95 2
-5 5 -19 79 -30 164 -11 85 -24 174 -30 199 -5 25 -16 92 -24 150 -19 138 -25
172 -36 190 -11 19 -10 38 -9 -377 1 -331 0 -342 -19 -352 -25 -14 -78 -14
-86 -1 -3 5 -6 255 -5 556 0 414 3 549 12 555 19 12 145 4 162 -10z"/>
<path d="M6130 9340 c-7 -12 -9 -207 -8 -562 l3 -544 44 -39 c24 -22 49 -44
56 -50 42 -37 66 -41 219 -30 164 11 151 5 157 79 3 40 -23 94 -66 136 -19 19
-35 42 -35 52 0 10 -4 18 -9 18 -14 0 -21 30 -25 97 -3 54 12 102 27 87 3 -3
23 0 44 7 35 12 43 14 59 18 4 0 1 8 -6 16 -10 12 -10 15 4 15 18 0 22 35 5
45 -6 4 -8 13 -5 20 2 7 -3 21 -12 31 -9 11 -29 35 -43 54 -15 19 -38 48 -53
63 -14 16 -23 33 -19 39 3 7 6 32 6 57 -1 25 4 65 10 89 11 40 13 42 48 42 24
0 39 5 43 15 3 8 11 15 19 15 10 0 12 12 7 46 -4 38 -15 58 -55 104 -80 90
-96 96 -262 98 -131 1 -144 0 -153 -18z m284 -31 c8 -8 14 -71 9 -85 -3 -9
-22 -14 -57 -14 -81 0 -79 4 -79 -183 0 -91 3 -169 6 -175 4 -5 32 -9 63 -9
37 0 59 -5 65 -14 9 -13 4 -74 -7 -91 -3 -5 -32 -8 -65 -8 l-59 0 -1 -52 c-3
-116 3 -283 9 -290 4 -4 34 -8 67 -10 l60 -3 3 -36 c5 -56 -12 -64 -147 -64
l-116 0 0 515 0 514 25 6 c26 7 218 6 224 -1z"/>
<path d="M6710 9350 l-45 -5 -3 -79 -3 -79 58 -55 58 -55 2 -401 2 -401 33
-28 c18 -15 49 -43 68 -61 44 -42 99 -57 170 -48 47 6 55 10 58 30 2 12 7 22
11 22 4 0 7 78 6 173 -1 94 2 182 6 194 5 12 5 25 0 27 -4 3 -8 106 -9 230 -1
193 1 225 14 230 9 3 20 4 25 1 5 -4 6 1 3 9 -5 12 1 16 24 16 46 0 63 23 55
73 -9 56 -19 72 -91 147 l-62 65 -168 0 c-92 0 -187 -2 -212 -5z m341 -47 c6
-6 9 -28 7 -49 l-3 -39 -50 -3 c-27 -2 -55 -8 -62 -13 -9 -8 -12 -116 -13
-447 0 -240 -2 -437 -4 -439 -2 -2 -20 -6 -40 -10 -69 -11 -66 -30 -66 458 l0
439 -22 5 c-13 2 -39 6 -58 7 -33 3 -35 5 -38 43 -5 62 7 65 185 61 86 -2 159
-8 164 -13z"/>
<path d="M7966 9337 c-10 -17 -13 -131 -12 -543 l1 -520 64 -60 c76 -70 83
-75 124 -79 18 -1 40 -6 50 -10 10 -4 17 -3 17 4 0 16 37 13 44 -4 4 -10 11
-12 27 -7 11 5 44 5 71 2 37 -5 53 -3 62 7 6 8 16 20 23 27 17 19 -9 119 -42
158 -14 16 -25 33 -25 37 0 4 -14 21 -31 39 -32 33 -54 100 -44 133 4 11 2 19
-6 19 -9 0 -8 4 1 15 7 8 10 25 6 39 -3 14 -2 28 4 31 6 4 5 13 -2 25 -10 15
-10 22 -1 31 8 8 9 19 3 35 -5 13 -7 30 -4 38 3 8 1 17 -5 21 -7 4 -8 12 -2
23 5 9 7 37 6 62 -2 25 1 63 5 85 7 28 5 46 -4 59 -10 16 -10 27 3 63 13 35
13 45 3 52 -10 6 -10 14 -2 35 6 18 6 25 0 21 -10 -6 -14 1 -24 48 -4 15 -11
27 -16 27 -5 0 -22 12 -37 26 -15 14 -32 29 -36 32 -4 4 -14 16 -22 27 -11 17
-26 20 -100 22 -78 1 -87 -1 -99 -20z m126 -34 c14 -16 16 -76 16 -447 0 -278
4 -432 10 -438 6 -6 33 -12 60 -13 27 -1 55 -5 61 -9 19 -12 14 -84 -7 -95
-22 -12 -199 -3 -224 10 -17 9 -18 42 -17 467 1 251 4 474 6 494 4 28 11 38
27 41 42 8 53 7 68 -10z"/>
<path d="M8538 9353 c-17 -4 -18 -40 -18 -549 l0 -545 38 -41 c104 -115 95
-110 192 -123 63 -9 84 -8 88 5 2 6 9 16 16 23 8 8 11 54 10 150 -1 89 1 137
8 137 7 0 7 4 1 13 -16 20 -16 276 -1 295 10 12 10 16 1 19 -15 5 -17 39 -3
48 6 4 5 13 -2 25 -10 15 -10 22 0 32 14 14 16 32 3 24 -5 -3 -8 62 -8 149 1
85 5 155 10 155 5 0 2 6 -5 13 -7 7 -24 30 -38 50 -14 20 -28 37 -32 37 -4 0
-26 20 -48 44 l-41 44 -77 0 c-42 0 -85 -2 -94 -5z m131 -49 c8 -8 6 -999 -2
-1016 -9 -20 -57 -24 -88 -8 -18 10 -19 27 -19 515 0 469 1 505 18 514 15 9
79 5 91 -5z"/>
<path d="M5990 8450 c0 -5 5 -10 10 -10 6 0 10 5 10 10 0 6 -4 10 -10 10 -5 0
-10 -4 -10 -10z"/>
<path d="M1659 6557 c-14 -15 -16 -37 -15 -130 1 -62 -2 -118 -7 -124 -5 -7
-6 -13 -1 -13 5 0 9 -205 9 -461 l1 -460 59 -54 c33 -30 66 -55 73 -55 6 0 12
-3 12 -8 0 -9 97 -8 131 2 15 4 36 21 48 36 l21 29 49 -28 c28 -17 53 -25 58
-20 4 4 48 9 96 10 48 1 87 6 87 11 0 4 6 8 14 8 16 0 26 57 20 110 -2 19 -3
114 -3 210 2 697 1 785 -10 782 -6 -1 -11 8 -11 20 0 14 -24 44 -67 85 -58 54
-72 63 -107 65 -89 3 -131 -3 -145 -23 -17 -24 -25 -24 -59 0 -40 29 -228 35
-253 8z m213 -63 c9 -37 39 -230 73 -479 30 -216 36 -247 53 -253 10 -3 13 68
12 365 0 202 -1 376 0 386 0 14 9 17 49 17 28 0 52 -4 56 -10 3 -5 5 -244 5
-532 0 -402 -3 -525 -13 -534 -19 -19 -161 -28 -174 -12 -10 13 -20 57 -29
128 -2 19 -11 78 -19 130 -27 172 -65 432 -65 441 0 5 -6 6 -13 4 -9 -4 -11
-82 -9 -358 4 -389 7 -370 -60 -382 -32 -6 -37 -4 -44 17 -9 28 -8 1084 1
1098 4 7 39 10 88 8 l81 -3 8 -31z"/>
<path d="M2510 6572 c-24 -2 -50 -8 -56 -13 -9 -7 -12 -134 -12 -482 -1 -260
2 -507 5 -550 5 -73 8 -81 42 -117 61 -64 112 -84 206 -83 93 2 211 15 221 25
3 4 6 25 6 48 0 22 3 40 9 40 5 0 9 4 9 10 0 5 -6 7 -14 4 -8 -3 -17 5 -24 23
-5 15 -26 45 -46 67 -20 21 -36 45 -36 53 0 7 -6 16 -14 19 -9 3 -13 25 -14
70 -2 88 9 114 48 114 16 0 30 5 30 10 0 6 8 10 18 10 19 1 63 30 44 30 -7 0
-12 14 -12 33 -1 45 -18 77 -74 139 -39 44 -49 63 -51 96 -2 23 1 42 6 42 5 0
9 5 9 11 0 5 -4 7 -10 4 -6 -4 -10 12 -10 40 0 40 3 47 33 65 19 12 43 18 60
16 24 -4 27 -1 27 23 0 15 5 32 11 38 19 19 -19 84 -87 150 l-65 63 -92 -1
c-51 0 -99 1 -107 3 -8 3 -35 3 -60 0z m228 -91 c4 -52 -6 -61 -66 -59 -24 0
-48 -4 -53 -9 -5 -5 -8 -81 -7 -179 l3 -169 60 -5 60 -5 0 -50 0 -50 -60 -5
-60 -5 -5 -120 c-3 -66 -3 -142 0 -170 l5 -50 57 -3 c67 -3 80 -18 69 -72 l-7
-35 -113 -9 c-101 -8 -116 -7 -126 7 -15 20 -18 992 -3 1020 8 16 22 17 126
15 l117 -3 3 -44z"/>
<path d="M2995 6564 c-11 -8 -15 -30 -15 -81 0 -63 3 -73 32 -111 18 -23 38
-42 44 -42 7 0 20 -14 29 -32 13 -28 15 -82 14 -413 -2 -372 2 -425 30 -425 9
0 45 -28 86 -69 27 -28 37 -31 112 -34 78 -4 83 -3 98 20 9 13 13 28 10 34 -4
5 -2 15 3 22 12 14 11 276 -1 295 -5 8 -3 12 7 12 21 0 20 16 -1 24 -14 6 -15
9 -4 15 9 6 12 35 11 107 -7 395 -8 374 11 385 10 5 22 8 26 7 13 -2 67 14 81
25 8 6 9 14 3 21 -5 6 -12 32 -16 58 -6 40 -17 56 -76 117 l-68 70 -201 3
c-135 2 -205 -1 -215 -8z m383 -86 c3 -53 10 -48 -78 -53 -17 -1 -32 -4 -35
-6 -2 -3 -5 -202 -7 -443 -3 -424 -3 -439 -23 -452 -11 -8 -29 -14 -42 -14
-48 0 -48 -1 -46 436 2 225 0 424 -3 442 -5 30 -8 32 -45 32 -71 0 -90 23 -73
88 6 22 7 22 178 20 l171 -3 3 -47z"/>
<path d="M3768 6572 c-100 -3 -106 -8 -108 -83 -1 -24 -1 -255 -1 -513 l1
-469 57 -54 c81 -75 120 -94 208 -97 l74 -3 7 41 c9 49 8 362 -1 376 -3 5 5
14 18 19 14 6 27 16 29 23 4 11 8 10 21 -1 17 -14 26 -11 64 25 14 13 10 103
-5 113 -5 3 -12 16 -16 29 -4 12 -11 22 -16 22 -5 0 -27 19 -49 42 l-39 43 0
92 c1 107 6 116 74 117 27 0 43 4 40 10 -2 6 5 26 16 44 11 17 15 32 10 32 -5
0 -13 12 -17 28 -6 25 -93 117 -142 149 -23 15 -88 20 -225 15z m192 -91 c0
-54 -6 -59 -60 -56 -19 1 -45 -2 -58 -6 -22 -9 -22 -10 -20 -181 l3 -173 35
-3 c98 -7 100 -8 100 -62 0 -54 0 -54 -68 -50 -72 3 -72 3 -72 -221 0 -110 -3
-199 -7 -200 -5 0 -24 -2 -43 -4 -19 -2 -41 1 -47 7 -10 8 -13 118 -13 488 0
263 3 485 6 494 5 13 26 16 125 16 l119 0 0 -49z"/>
<path d="M4902 6570 c-23 -4 -47 -11 -52 -16 -10 -10 -17 -895 -7 -911 3 -5 2
-15 -3 -23 -4 -7 -5 -23 0 -35 4 -11 5 -40 0 -64 -6 -32 -4 -44 6 -48 8 -3 14
-11 14 -17 0 -7 28 -39 63 -72 54 -51 70 -61 122 -71 71 -14 149 -7 141 13 -3
7 -1 16 5 20 6 3 6 11 2 17 -5 7 -8 44 -7 82 3 116 4 253 1 388 -1 70 1 127 6
127 4 0 4 8 -1 18 -9 16 -9 189 -1 222 2 8 -1 14 -8 13 -8 -2 -9 6 -3 26 4 16
6 54 4 84 -2 31 1 59 6 62 9 6 -4 24 -84 113 -61 67 -114 86 -204 72z m84 -51
c3 -6 7 -236 8 -511 3 -557 5 -534 -62 -522 -21 4 -40 9 -44 11 -9 5 -11 994
-2 1017 7 19 89 23 100 5z"/>
<path d="M5403 6572 c-82 -4 -89 -13 -74 -100 7 -37 14 -83 17 -102 2 -19 13
-71 24 -115 51 -212 51 -224 9 -450 -6 -33 -17 -100 -24 -150 -8 -49 -18 -117
-24 -150 -13 -74 -7 -85 100 -167 108 -83 219 -110 219 -53 0 25 28 23 71 -6
58 -39 98 -56 153 -64 38 -6 46 -4 55 14 12 22 11 132 -1 124 -5 -2 -8 14 -8
36 0 22 -4 42 -9 45 -5 3 -7 14 -4 25 2 10 -2 42 -11 71 -9 29 -13 63 -10 75
3 13 1 26 -5 29 -6 4 -11 24 -11 45 0 21 -7 58 -15 82 -9 24 -14 52 -11 61 2
10 0 20 -4 23 -10 6 -7 45 4 63 4 7 4 16 1 22 -3 5 0 20 8 32 7 13 13 42 13
64 -1 31 2 40 13 36 11 -4 12 -1 4 13 -11 19 -6 92 7 110 4 6 8 32 9 58 1 27
8 64 16 84 12 28 13 44 5 68 -13 38 -142 175 -167 176 -10 1 -47 1 -83 0 -56
-2 -68 -6 -86 -27 l-21 -25 -29 24 c-35 29 -52 33 -131 29z m81 -58 c3 -8 13
-63 22 -122 20 -138 34 -202 43 -202 10 0 29 83 46 209 8 57 20 110 26 117 7
8 31 14 60 14 39 0 49 -4 54 -20 3 -11 4 -24 1 -28 -3 -5 -9 -35 -15 -68 -5
-32 -21 -125 -35 -206 -30 -169 -31 -218 -12 -343 8 -49 19 -133 26 -185 6
-52 18 -128 26 -167 7 -40 11 -80 8 -88 -13 -32 -121 -8 -128 28 -3 12 -7 49
-11 82 -3 33 -10 89 -15 125 -6 36 -13 85 -16 110 -8 64 -13 75 -25 63 -6 -6
-13 -39 -15 -74 -2 -35 -9 -93 -14 -129 -5 -36 -12 -87 -15 -115 -10 -76 -16
-82 -72 -76 -59 7 -61 15 -38 151 76 450 76 449 4 770 -17 78 -26 145 -22 158
8 19 109 16 117 -4z"/>
<path d="M4280 6551 c-6 -13 -10 -202 -9 -536 l0 -517 69 -69 c38 -38 76 -69
85 -69 8 0 15 -4 15 -8 0 -5 15 -9 33 -9 17 -1 44 -1 60 -2 15 0 33 0 40 0 6
0 41 -2 75 -4 52 -3 68 0 89 16 21 17 24 26 19 56 -15 91 -15 92 -116 209 -17
20 -26 40 -23 51 3 10 0 22 -5 25 -7 4 -6 15 3 32 8 16 10 36 5 52 -4 15 -6
168 -4 340 2 264 0 312 -12 312 -8 0 -14 4 -14 8 0 12 -77 92 -89 92 -6 0 -15
9 -21 20 -9 18 -21 20 -100 20 -78 0 -91 -2 -100 -19z m137 -35 c4 -6 8 -205
9 -442 1 -238 5 -437 8 -443 4 -6 29 -11 55 -11 64 0 83 -15 79 -65 l-3 -40
-117 0 c-64 0 -120 4 -124 8 -11 10 -13 956 -3 984 11 31 78 38 96 9z"/>
<path d="M8890 6485 c-5 -18 -9 -261 -8 -595 l0 -565 66 -62 c61 -59 80 -69
126 -64 10 0 25 -4 32 -10 10 -8 14 -8 14 0 0 6 14 11 31 11 24 0 32 6 40 30
11 29 41 41 54 21 3 -5 19 -12 36 -16 17 -4 33 -13 36 -21 4 -10 9 -11 17 -5
7 6 48 13 92 17 44 4 89 13 99 20 22 16 37 102 25 143 -4 16 -6 60 -3 98 9
129 10 458 2 469 -4 5 -5 43 0 83 6 57 4 74 -6 78 -7 3 -13 9 -13 14 0 4 7 6
15 3 11 -5 13 0 5 25 -5 20 -5 31 3 34 6 2 7 9 2 17 -4 7 -9 38 -10 69 -5 104
-14 121 -117 203 -38 30 -45 32 -126 32 -74 0 -87 -3 -96 -20 -6 -10 -12 -21
-14 -23 -1 -3 -16 6 -34 19 -28 21 -43 23 -145 24 l-113 1 -10 -30z m198 -14
c19 -2 34 -47 42 -131 7 -65 30 -224 61 -425 5 -33 13 -90 17 -127 8 -68 16
-87 30 -74 4 4 8 170 9 369 0 199 1 367 2 373 1 16 57 25 86 14 l25 -10 0
-529 c0 -291 -3 -532 -8 -535 -4 -2 -36 -7 -72 -11 -36 -3 -72 -8 -81 -11 -9
-2 -21 1 -27 8 -11 15 -28 96 -38 183 -6 58 -17 135 -49 339 -13 86 -22 144
-24 167 -1 4 -7 9 -13 12 -10 3 -12 -69 -10 -350 3 -223 0 -359 -6 -365 -15
-15 -78 -26 -93 -17 -21 12 -24 1099 -4 1115 11 8 87 11 153 5z"/>
<path d="M9723 6512 c-23 -2 -33 -9 -37 -26 -3 -13 -6 -260 -5 -549 l0 -525
36 -46 c20 -25 40 -46 46 -46 6 0 22 -10 35 -22 23 -22 31 -23 165 -21 78 1
155 7 171 13 29 10 29 11 22 72 -5 54 -12 69 -51 118 -61 74 -77 113 -76 183
1 70 12 87 58 87 55 0 73 15 73 61 0 48 -22 94 -84 173 l-46 59 1 89 c1 53 5
84 11 76 6 -10 10 -7 14 10 5 17 14 22 38 22 46 1 66 21 66 65 0 45 -24 86
-82 140 -76 71 -69 69 -201 69 -67 1 -136 0 -154 -2z m230 -39 c27 -5 28 -7
25 -51 l-3 -47 -60 -5 c-57 -5 -60 -6 -65 -35 -3 -16 -3 -97 0 -180 l5 -150
60 -5 60 -5 0 -50 0 -50 -55 -3 c-30 -2 -59 -7 -64 -12 -6 -6 -11 -198 -7
-317 1 -20 7 -22 64 -25 l62 -3 3 -39 c2 -21 -1 -43 -7 -49 -12 -12 -218 -25
-234 -15 -9 5 -12 140 -13 500 -1 271 0 503 3 515 4 16 14 23 36 25 55 6 161
7 190 1z"/>
<path d="M10290 6512 c-63 -5 -70 -14 -70 -89 0 -65 17 -107 50 -127 8 -5 27
-22 42 -37 l27 -27 -1 -384 c-2 -286 1 -392 10 -414 7 -16 33 -42 57 -59 25
-16 45 -33 45 -37 0 -13 54 -36 90 -38 19 -2 54 -2 78 -1 36 1 44 5 54 29 11
29 18 710 7 810 -5 48 -3 54 20 69 15 9 37 16 50 15 43 -4 60 22 50 74 -5 25
-8 49 -6 53 3 10 -60 81 -72 81 -5 0 -12 8 -15 18 -4 11 -18 30 -32 43 -25 23
-31 24 -182 24 -86 0 -177 -1 -202 -3z m321 -49 c6 -6 9 -28 7 -49 l-3 -39
-50 -3 c-27 -2 -54 -7 -59 -12 -4 -5 -10 -206 -13 -447 -3 -322 -7 -440 -16
-445 -20 -13 -74 -9 -86 6 -8 10 -11 135 -10 445 0 238 -2 435 -5 438 -3 3
-28 8 -56 11 -54 5 -66 20 -58 73 2 20 10 25 48 29 75 9 291 3 301 -7z"/>
<path d="M10958 6512 c-66 -6 -60 52 -59 -613 l1 -446 31 -29 c73 -70 86 -81
111 -97 15 -9 34 -17 43 -17 8 0 15 -5 15 -10 0 -6 10 -8 23 -5 12 3 40 7 62
8 58 3 73 21 65 73 -4 24 -4 48 0 54 4 6 4 28 0 48 -3 20 -4 55 -2 77 2 22 3
66 2 97 -1 72 12 98 50 98 16 0 40 4 54 10 22 8 25 15 25 57 -2 65 -18 101
-68 148 -49 46 -75 90 -64 108 4 7 6 39 4 72 -2 51 1 63 18 79 12 11 21 16 21
11 0 -4 6 -2 14 4 9 7 17 8 20 2 4 -5 15 -5 31 2 29 14 35 49 18 94 -7 18 -10
39 -7 47 4 10 1 16 -8 16 -18 0 -61 44 -51 53 3 4 0 7 -7 7 -8 0 -25 11 -39
24 -24 23 -35 25 -146 28 -66 2 -137 2 -157 0z m236 -43 c4 -4 9 -64 7 -86 -1
-9 -20 -13 -59 -13 -32 0 -63 -5 -70 -12 -8 -8 -12 -62 -12 -179 0 -189 -5
-179 86 -179 l55 0 -3 -52 -3 -53 -65 -5 -65 -5 -5 -205 -5 -205 -50 0 -50 0
0 495 0 494 25 7 c26 7 207 5 214 -2z"/>
<path d="M11538 6512 c-24 -5 -29 -39 -28 -185 1 -73 1 -298 0 -500 0 -239 3
-374 10 -387 14 -27 102 -115 128 -129 46 -25 52 -17 52 69 l0 80 -64 0 c-39
0 -67 5 -74 13 -15 18 -16 965 -1 983 16 19 88 18 95 -1 3 -8 7 -209 7 -447 2
-403 3 -433 20 -436 16 -3 17 24 17 467 l0 471 -32 1 c-18 1 -51 2 -73 3 -22
1 -47 0 -57 -2z"/>
<path d="M5910 6289 c0 -5 5 -7 10 -4 6 3 10 8 10 11 0 2 -4 4 -10 4 -5 0 -10
-5 -10 -11z"/>
<path d="M185 3772 c-38 -2 -74 -7 -78 -11 -6 -6 -11 -773 -8 -1032 1 -32 7
-42 51 -75 27 -21 53 -46 56 -56 3 -10 13 -18 23 -18 10 0 21 -3 25 -7 10 -11
36 -14 91 -13 63 1 85 8 85 26 0 8 5 14 10 14 7 0 9 25 4 74 -4 51 -3 75 5 80
6 4 9 12 5 17 -3 5 -7 55 -9 109 -4 91 -2 101 17 114 11 8 33 13 49 11 16 -2
29 0 29 4 0 5 8 11 19 14 15 4 18 13 16 48 -2 59 -27 111 -68 146 -19 15 -39
37 -45 48 -13 26 -26 166 -18 193 7 22 58 45 80 36 14 -5 46 20 46 37 0 6 4 8
9 4 5 -3 12 -1 16 5 3 6 -1 13 -9 16 -10 4 -16 18 -16 38 0 26 -11 43 -47 81
-81 81 -112 97 -195 99 -40 0 -104 0 -143 -2z m213 -76 c2 -15 1 -39 -2 -52
-6 -22 -11 -24 -71 -24 -36 0 -65 -3 -66 -7 -4 -31 -6 -322 -3 -335 4 -15 17
-18 63 -18 31 0 62 -5 69 -12 16 -16 16 -97 0 -100 -7 -1 -37 -2 -66 -2 -35
-1 -56 -6 -62 -16 -5 -8 -8 -99 -8 -203 1 -154 -1 -190 -13 -198 -21 -13 -75
-11 -87 4 -15 17 -15 952 -1 979 9 17 22 18 127 16 l117 -3 3 -29z"/>
<path d="M2098 3772 c-48 -2 -61 -7 -78 -29 l-20 -26 -38 27 c-32 22 -49 26
-108 26 -96 0 -107 -9 -94 -80 5 -30 13 -80 16 -110 4 -30 10 -59 14 -65 4 -5
12 -44 19 -85 7 -41 17 -91 23 -110 14 -45 12 -123 -6 -240 -41 -261 -47 -297
-56 -326 -15 -46 -12 -112 6 -139 17 -25 106 -97 164 -131 19 -11 56 -21 82
-22 38 -2 49 1 61 19 17 24 41 20 77 -11 35 -30 157 -63 197 -53 17 4 22 11
19 27 -3 11 -10 62 -16 111 -7 50 -17 102 -22 117 -6 16 -10 46 -10 68 0 22
-3 40 -8 40 -5 0 -8 15 -8 33 1 17 -1 39 -5 47 -13 37 -37 158 -37 190 0 19 7
64 15 99 9 35 13 72 10 81 -3 9 1 22 8 29 10 7 14 30 12 66 -1 33 3 59 10 65
7 6 12 32 11 61 0 28 2 53 7 56 4 2 7 26 7 53 0 50 -17 103 -30 95 -5 -3 -17
11 -29 30 -11 19 -25 35 -32 35 -6 0 -18 9 -27 20 -22 26 -63 36 -134 32z
m-188 -56 c9 -12 35 -139 57 -284 8 -47 19 -47 31 1 19 78 42 197 42 222 0 13
5 36 12 50 10 22 18 25 59 25 31 0 49 -5 52 -14 6 -15 -3 -85 -27 -211 -52
-277 -52 -277 -37 -382 6 -40 15 -103 20 -140 5 -38 19 -132 30 -211 12 -79
19 -147 16 -152 -12 -19 -110 -7 -118 15 -3 6 -13 70 -22 141 -26 204 -36 264
-44 264 -8 0 -23 -89 -45 -263 -9 -65 -18 -122 -21 -127 -4 -6 -28 -10 -55
-10 -39 0 -50 4 -55 19 -5 18 4 100 25 206 6 28 22 120 35 206 22 132 24 164
15 205 -16 69 -16 70 -30 159 -7 44 -16 85 -20 90 -4 6 -11 37 -15 69 -4 32
-12 69 -17 82 -8 17 -8 27 2 39 16 20 93 20 110 1z"/>
<path d="M714 3748 c-6 -14 -9 -136 -7 -293 1 -148 2 -277 2 -285 -6 -175 -3
-459 5 -474 6 -11 36 -45 67 -75 68 -68 103 -80 258 -85 121 -5 141 -2 141 20
0 8 8 14 18 15 10 0 12 3 5 6 -8 3 -13 23 -13 49 0 24 -4 44 -10 44 -5 0 -10
7 -10 14 0 8 -11 27 -25 42 -14 15 -25 35 -25 45 0 11 -5 19 -11 19 -13 0 -54
49 -54 65 0 5 -3 15 -7 20 -4 6 -4 16 0 22 4 6 5 98 2 204 -3 107 -2 195 2
197 3 2 2 17 -3 34 -5 20 -5 36 2 44 6 7 6 15 1 18 -12 7 -3 107 12 125 9 12
8 13 -3 7 -10 -7 -12 2 -10 43 4 45 2 50 -13 45 -13 -4 -18 0 -18 16 0 21 -78
101 -124 127 -11 7 -55 12 -97 13 -69 0 -77 -2 -85 -22z m129 -30 c15 -12 17
-54 19 -453 l3 -440 57 -5 c64 -6 73 -12 81 -55 10 -53 0 -57 -117 -56 -59 1
-113 4 -121 7 -13 5 -15 74 -15 503 0 274 3 501 7 504 11 12 68 8 86 -5z"/>
<path d="M1282 3748 c-6 -17 -8 -781 -2 -1066 0 -15 25 -48 68 -91 64 -66 69
-69 127 -75 33 -4 70 -10 82 -13 36 -8 55 34 58 130 1 45 -2 90 -7 100 -6 12
-5 19 6 23 9 3 13 14 10 27 -7 34 -6 116 2 129 4 6 3 9 -2 5 -5 -3 -9 139 -8
346 l1 352 -31 37 c-17 21 -35 38 -39 38 -4 0 -25 18 -46 40 l-38 40 -87 0
c-81 0 -87 -1 -94 -22z m136 -30 c9 -9 12 -137 12 -514 0 -558 3 -532 -66
-521 -20 4 -39 9 -43 12 -9 9 -8 996 1 1018 9 20 77 24 96 5z"/>
<path d="M7558 3725 c-3 -3 -48 -7 -100 -9 -51 -1 -99 -5 -106 -10 -9 -5 -12
-128 -12 -529 l0 -522 58 -55 c71 -69 120 -93 195 -95 71 -3 102 20 92 67 -5
20 -2 30 8 34 12 4 13 11 4 35 -9 22 -9 34 0 48 10 15 9 22 -2 31 -18 15 -20
61 -4 77 8 8 8 13 0 17 -14 9 -14 46 0 46 9 0 9 4 0 14 -8 9 -8 21 0 45 11 30
29 43 29 19 0 -6 6 -4 13 7 10 13 16 15 21 6 5 -8 15 -6 36 9 15 11 34 20 40
20 9 0 9 4 3 13 -6 6 -11 30 -11 51 -1 21 -8 46 -17 56 -8 9 -15 20 -15 25 0
4 -21 26 -46 48 -33 29 -44 46 -40 59 3 15 1 18 -11 14 -13 -5 -14 2 -9 51 4
32 9 66 12 76 3 9 1 17 -5 17 -21 0 -11 30 15 46 22 15 27 15 35 3 7 -11 9
-11 9 0 0 9 8 11 27 7 17 -5 29 -3 34 6 15 23 10 102 -9 128 -19 28 -81 90
-89 90 -2 0 -13 10 -22 21 -11 14 -31 23 -57 24 -21 2 -46 6 -55 10 -8 3 -18
3 -21 0z m77 -100 l0 -50 -60 -3 c-33 -2 -63 -8 -67 -15 -12 -19 -9 -335 3
-342 5 -4 31 -7 57 -7 63 1 76 -8 74 -54 -2 -49 -12 -58 -68 -56 -74 3 -74 5
-74 -212 0 -105 -4 -197 -9 -204 -5 -9 -24 -12 -52 -10 l-44 3 -3 494 c-2 389
0 496 10 503 7 4 63 7 123 6 l110 -3 0 -50z"/>
<path d="M9080 3722 c-74 -5 -80 -9 -80 -50 0 -21 7 -64 15 -95 8 -32 17 -76
19 -100 3 -23 14 -80 26 -127 29 -112 30 -233 2 -370 -12 -58 -24 -121 -27
-140 -2 -19 -12 -85 -22 -146 l-17 -112 30 -29 c16 -16 50 -43 76 -61 25 -17
48 -37 50 -42 2 -6 29 -20 60 -30 67 -22 110 -15 118 18 l5 22 40 -21 c22 -12
47 -27 56 -35 8 -8 21 -14 28 -14 6 0 26 -7 42 -16 24 -12 34 -13 45 -3 10 8
14 8 14 0 0 -15 35 -14 49 2 6 9 8 35 5 68 -3 30 -6 66 -7 82 -1 15 -6 27 -10
27 -5 0 -5 4 -2 10 3 5 1 19 -5 30 -8 15 -8 20 1 20 8 0 7 6 -3 18 -9 9 -19
42 -22 73 -3 30 -10 68 -16 83 -8 21 -7 32 1 42 8 9 8 18 2 27 -27 34 -52 221
-31 233 4 3 8 25 8 49 0 24 5 45 11 47 7 2 12 32 13 73 1 39 6 70 13 72 6 2 9
18 6 37 -2 20 1 39 9 47 7 8 13 35 13 62 0 26 3 47 8 47 16 0 -6 45 -34 70
-16 14 -29 28 -29 32 0 10 -57 68 -68 68 -5 0 -15 7 -23 16 -9 11 -22 14 -42
10 -16 -3 -37 -2 -47 4 -9 5 -20 6 -24 3 -4 -4 -21 -7 -39 -7 -23 -1 -35 -7
-42 -23 -12 -29 -21 -29 -48 1 -23 24 -64 33 -127 28z m72 -54 c11 -9 20 -43
28 -108 7 -52 16 -105 21 -118 5 -13 9 -36 9 -52 0 -35 15 -47 29 -23 5 10 19
79 31 153 13 74 27 141 33 148 15 18 96 16 104 -4 6 -17 -14 -157 -49 -334
-25 -125 -26 -231 -5 -331 9 -41 21 -121 27 -179 7 -58 16 -127 21 -154 5 -27
9 -62 9 -77 0 -27 -2 -29 -43 -29 -24 0 -50 6 -59 13 -17 13 -30 74 -53 247
-21 151 -25 171 -36 164 -5 -3 -9 -19 -9 -35 0 -17 -4 -49 -9 -72 -5 -23 -15
-89 -21 -147 -16 -148 -12 -140 -75 -140 -62 0 -74 16 -56 73 5 17 14 68 20
112 6 44 13 91 16 105 3 14 12 70 21 125 8 55 18 116 21 137 6 43 -16 177 -74
435 -13 59 -14 75 -3 88 15 18 80 20 102 3z"/>
<path d="M5331 3701 c-3 -9 -6 -281 -6 -604 l0 -588 29 -22 c15 -12 43 -34 61
-50 18 -15 48 -30 66 -34 19 -3 37 -11 42 -17 5 -8 10 -7 16 3 6 9 18 11 35 7
15 -4 26 -2 26 4 0 5 9 10 20 10 11 0 20 5 20 11 0 6 6 17 14 24 11 11 19 11
52 0 21 -7 40 -18 42 -24 2 -6 8 -8 14 -5 5 4 40 9 76 11 69 5 113 9 122 12
14 3 31 64 25 90 -3 17 -2 32 5 36 5 3 7 11 4 17 -10 15 -11 74 -4 136 4 28 4
55 1 58 -9 8 -7 48 1 55 4 3 2 19 -4 36 -9 24 -9 38 -1 56 7 16 8 38 3 61 -4
21 -4 38 1 42 5 3 6 11 2 17 -4 6 -8 119 -9 252 -1 149 -7 251 -14 269 -13 35
-83 114 -122 139 -21 12 -50 17 -108 17 -73 0 -81 -2 -96 -25 l-16 -24 -30 22
c-26 20 -42 22 -145 23 -95 0 -116 -3 -122 -15z m213 -37 c9 -8 16 -28 16 -43
0 -15 7 -72 15 -127 14 -90 42 -282 50 -344 22 -166 30 -209 41 -230 13 -24
13 -24 15 20 1 25 1 197 0 382 -2 326 -1 337 18 347 27 15 76 14 89 -2 17 -20
16 -1051 -1 -1065 -6 -5 -50 -11 -97 -13 l-85 -4 -7 45 c-12 72 -29 180 -38
245 -40 283 -68 440 -78 431 -3 -4 -5 -167 -4 -364 2 -196 -1 -362 -5 -368
-11 -16 -82 -27 -96 -15 -14 11 -17 1087 -4 1109 12 19 151 16 171 -4z"/>
<path d="M6131 3706 c-9 -10 -11 -159 -9 -566 l3 -552 25 -18 c14 -10 43 -34
65 -54 25 -22 50 -36 67 -36 14 0 28 -5 30 -11 3 -9 9 -9 25 -1 12 7 57 10
109 9 92 -3 153 10 146 31 -2 6 4 26 12 44 14 28 14 33 1 48 -8 9 -15 20 -15
25 0 5 -7 15 -15 24 -82 88 -94 108 -105 176 -13 79 5 117 60 132 22 5 40 6
40 2 0 -5 5 -9 10 -9 6 0 10 9 10 21 0 11 5 30 11 41 8 15 8 22 0 28 -7 3 -9
14 -6 22 6 14 -11 38 -70 104 -48 53 -56 68 -51 87 3 12 1 27 -5 33 -7 9 -7
24 0 49 5 20 7 43 4 51 -3 8 0 14 6 14 7 0 11 6 10 13 -4 33 1 36 50 31 47 -4
49 -3 54 25 3 16 9 40 12 53 5 21 -5 37 -72 105 -90 92 -92 93 -274 93 -88 0
-119 -3 -128 -14z m280 -42 c16 -19 13 -75 -5 -86 -6 -4 -34 -8 -62 -8 -33 0
-53 -5 -56 -12 -2 -7 -3 -87 -3 -178 l0 -165 45 -3 c88 -5 91 -7 88 -60 l-3
-47 -57 -5 c-31 -3 -60 -8 -63 -12 -13 -13 -12 -330 1 -335 7 -2 36 -5 66 -6
l53 -2 0 -50 0 -50 -45 -7 c-25 -3 -79 -7 -121 -7 -61 -1 -78 2 -83 15 -3 9
-6 238 -6 509 0 435 2 495 16 509 23 24 216 23 235 0z"/>
<path d="M6671 3701 c-6 -10 -11 -45 -12 -78 -3 -69 14 -100 81 -153 l40 -32
-2 -400 -2 -400 55 -50 c84 -77 106 -88 176 -88 70 0 93 6 93 25 0 7 4 15 9
17 14 5 24 48 10 48 -9 0 -9 3 0 14 7 8 9 29 6 52 -4 22 -2 50 3 64 7 19 6 31
-4 44 -8 11 -10 25 -5 35 6 14 7 139 2 406 -2 136 3 205 17 205 6 0 12 5 12
11 0 6 15 9 37 7 34 -3 37 -1 46 31 5 19 7 45 4 58 -2 13 0 23 4 23 5 0 9 5 9
12 0 6 -3 8 -7 5 -3 -4 -17 8 -30 26 -13 17 -46 55 -73 83 l-49 51 -206 1
c-186 1 -206 -1 -214 -17z m377 -33 c7 -7 12 -27 12 -45 0 -38 -21 -53 -73
-53 -19 0 -39 -6 -45 -13 -8 -9 -11 -150 -12 -441 0 -236 -2 -432 -5 -436 -8
-13 -78 -20 -92 -8 -10 8 -13 99 -13 449 0 241 -4 440 -9 443 -4 3 -23 6 -42
7 -62 3 -69 7 -69 48 0 20 5 42 12 49 8 8 60 12 168 12 108 0 160 -4 168 -12z"/>
<path d="M7956 3696 c-3 -11 -4 -252 -3 -537 l2 -517 55 -60 c68 -73 87 -82
175 -84 39 0 75 -4 80 -8 11 -9 47 -10 123 -3 l53 5 -6 65 c-5 67 -29 115 -79
155 -11 9 -18 19 -14 23 3 3 -5 18 -18 32 -13 14 -24 34 -24 44 0 11 -4 19
-10 19 -5 0 -10 7 -10 15 0 8 4 15 9 15 10 0 6 214 -4 230 -3 6 1 10 9 10 17
0 21 12 9 24 -5 4 -9 83 -9 174 -2 247 -13 308 -60 326 -8 3 -14 12 -14 21 0
8 -5 15 -10 15 -6 0 -22 12 -36 27 -25 27 -31 28 -119 29 -85 0 -94 -2 -99
-20z m136 -30 c16 -11 17 -48 16 -443 -1 -236 2 -434 5 -440 4 -6 31 -13 62
-15 30 -3 57 -7 59 -9 2 -2 7 -20 10 -39 11 -59 0 -64 -115 -62 -56 2 -110 7
-120 13 -18 9 -18 35 -19 490 0 309 4 488 10 500 12 22 66 26 92 5z"/>
<path d="M8531 3706 c-7 -8 -11 -199 -11 -545 -1 -597 -8 -542 78 -628 56 -55
104 -76 180 -76 80 0 86 10 83 135 -1 57 -2 110 -3 118 0 8 1 85 2 170 1 85 1
160 0 165 -1 6 -1 15 0 20 1 6 2 67 0 137 -1 79 3 135 10 148 8 14 8 25 1 33
-5 7 -10 39 -9 72 0 51 -3 78 -11 116 0 3 -33 38 -72 77 l-71 72 -84 -1 c-52
-1 -87 -5 -93 -13z m126 -34 c10 -6 13 -121 13 -516 0 -279 -2 -511 -5 -517
-9 -13 -68 -11 -88 4 -16 11 -17 52 -18 510 0 367 3 503 12 513 12 15 66 19
86 6z"/>
<path d="M9540 3160 c0 -5 5 -10 10 -10 6 0 10 5 10 10 0 6 -4 10 -10 10 -5 0
-10 -4 -10 -10z"/>
<path d="M1734 882 c-28 -3 -32 -7 -38 -42 -3 -21 -6 -205 -7 -409 l0 -371
-845 0 -844 0 0 -30 0 -30 5850 0 5850 0 0 30 c0 28 -3 30 -35 30 l-35 0 0
383 c0 406 0 407 47 407 16 0 23 6 23 20 0 17 -7 20 -45 20 -35 0 -47 -4 -56
-21 -7 -15 -10 -140 -10 -415 l2 -394 -136 0 c-74 0 -135 3 -135 6 0 3 7 18
16 33 13 22 22 26 52 24 49 -4 70 14 73 63 3 49 -27 109 -81 160 -49 46 -53
59 -54 151 -1 51 3 74 12 78 7 3 11 9 8 14 -4 5 7 12 24 16 16 4 32 11 35 16
4 5 15 9 25 9 14 0 21 10 26 37 10 51 -21 105 -96 170 l-60 52 -149 0 c-121 1
-151 -2 -161 -14 -10 -12 -13 -107 -12 -415 l0 -400 -113 0 -113 0 3 82 c2 46
4 85 5 88 1 3 1 17 0 32 -1 16 3 28 9 28 6 0 11 4 11 10 0 5 -7 7 -15 4 -18
-7 -20 17 -3 34 9 9 9 15 0 24 -16 16 -15 45 1 51 9 3 9 7 1 18 -7 9 -10 39
-7 78 4 68 22 95 54 85 24 -7 66 15 72 38 3 11 0 42 -8 70 -10 41 -25 63 -80
117 l-67 66 -202 3 c-237 4 -229 7 -228 -93 1 -67 29 -135 56 -135 7 0 23 -11
36 -25 22 -24 23 -28 24 -277 1 -139 0 -263 -2 -276 -4 -22 -7 -22 -153 -22
-139 0 -149 1 -149 19 0 25 23 42 59 43 17 1 39 10 49 22 25 27 35 81 19 98
-7 7 -19 26 -27 42 -8 15 -35 50 -61 76 -45 47 -46 48 -42 106 2 33 6 78 9
102 5 39 7 42 34 40 15 -1 44 6 63 17 30 16 34 22 26 37 -6 10 -7 23 -4 29 15
24 -25 82 -113 162 l-42 37 -144 0 c-118 0 -147 -3 -160 -16 -14 -13 -16 -65
-16 -415 l0 -399 -69 0 -68 0 1 44 c0 24 4 42 9 39 4 -2 7 3 7 11 0 8 -4 17
-8 20 -4 2 -7 61 -7 131 1 69 -3 128 -7 131 -4 3 -3 14 2 24 14 26 6 258 -9
290 -7 14 -44 51 -82 83 l-70 57 -77 0 c-82 0 -94 -4 -105 -34 -7 -18 -9 -18
-33 5 -24 22 -34 24 -143 26 -117 3 -118 3 -129 -23 -9 -17 -12 -142 -12 -414
l0 -390 -1528 0 -1527 0 -11 38 c-13 42 -9 189 6 207 5 6 9 35 9 63 -1 29 4
59 11 67 7 9 10 18 7 22 -4 3 1 12 11 19 11 9 12 13 4 14 -9 0 -11 11 -7 38 3
20 7 46 8 57 1 11 6 25 10 32 13 21 16 113 3 113 -6 0 -17 12 -24 28 -7 15
-40 50 -74 79 l-60 52 -75 -2 c-69 -2 -78 -5 -96 -29 l-20 -26 -38 25 c-29 19
-54 26 -96 28 -46 1 -115 -10 -113 -18 1 -1 9 -54 20 -117 22 -137 27 -164 39
-210 5 -19 16 -69 25 -110 15 -70 15 -93 0 -180 -18 -107 -25 -157 -25 -172 0
-16 -12 -18 -99 -18 l-99 0 2 59 c1 33 6 63 10 67 9 10 9 44 -1 44 -4 0 -7
107 -6 238 2 201 0 242 -14 270 -9 17 -22 32 -29 32 -7 0 -13 5 -13 11 0 6
-21 31 -47 54 -34 32 -58 45 -90 50 -49 7 -130 -3 -139 -17 -4 -5 -6 -189 -6
-409 l-1 -399 -111 0 c-108 0 -111 1 -112 23 -1 12 -4 45 -7 73 -3 28 -2 88 2
135 5 51 4 89 -2 96 -6 9 -6 18 1 26 8 9 8 24 1 50 -6 24 -7 50 0 74 14 59 8
169 -12 191 -9 10 -17 23 -17 29 0 15 -104 111 -132 122 -30 11 -157 6 -170
-7 -11 -11 -14 -573 -4 -591 4 -5 2 -12 -2 -15 -5 -3 -8 -51 -6 -106 l3 -100
-134 0 c-122 0 -135 2 -135 18 0 25 31 41 84 43 25 2 47 8 48 13 0 6 2 16 2
21 1 6 5 16 10 23 4 7 3 19 -3 26 -6 7 -8 16 -4 19 3 4 1 13 -5 20 -7 8 -9 17
-5 20 3 4 1 7 -5 7 -6 0 -14 9 -17 20 -3 11 -12 20 -20 20 -8 0 -17 9 -20 20
-3 11 -11 20 -16 20 -5 0 -9 6 -9 13 0 7 -9 18 -19 24 -18 11 -20 23 -18 102
2 101 17 126 70 116 15 -2 27 0 27 5 0 6 10 10 21 10 19 0 21 4 15 31 -3 17
-6 43 -6 58 0 29 -66 106 -128 149 -34 23 -47 26 -152 28 -63 1 -132 -2 -152
-7 l-38 -10 0 -82 c-1 -45 -1 -227 -1 -404 l-1 -323 -109 0 -109 0 -1 38 c-1
20 -1 39 -1 42 -1 3 2 31 6 62 5 52 4 57 -11 52 -11 -4 -14 -3 -7 3 6 4 10 35
10 68 -1 33 2 73 7 89 6 18 6 30 0 35 -6 3 -8 33 -5 69 4 61 6 63 28 58 16 -4
26 -1 33 11 6 10 11 12 11 6 0 -23 17 -14 35 20 14 26 16 43 9 73 -4 21 -8 44
-9 51 0 6 -11 20 -25 31 -14 11 -47 42 -75 70 l-50 49 -192 -3 c-106 -1 -201
-7 -211 -13 -17 -9 -19 -21 -18 -86 l2 -76 58 -52 57 -52 4 -235 c2 -129 1
-252 -2 -272 l-6 -38 -148 0 -149 0 0 24 c0 18 7 25 31 30 17 3 34 4 38 1 5
-2 22 10 39 28 29 30 30 35 22 72 -5 22 -16 45 -24 51 -9 6 -16 16 -16 23 0 6
-4 11 -8 11 -4 0 -26 23 -47 52 -37 48 -40 56 -41 124 -1 55 2 71 12 67 9 -3
11 2 7 16 -3 12 -9 21 -14 21 -5 0 -6 7 -3 15 4 10 19 15 48 15 78 -2 74 -5
71 68 -2 64 -4 69 -45 109 -24 24 -47 43 -52 43 -4 0 -8 6 -8 14 0 29 -61 41
-203 40 -87 -1 -142 -5 -149 -12 -8 -8 -11 -129 -10 -412 l1 -400 -69 0 -68 0
0 326 c0 226 -3 329 -11 337 -6 6 -11 18 -11 27 0 22 -76 94 -125 118 -30 15
-57 19 -107 17 -68 -2 -98 -15 -98 -42 0 -11 -9 -7 -31 11 -17 14 -40 27 -52
27 -56 3 -155 4 -183 1z m157 -41 c23 -1 26 -10 54 -214 14 -100 30 -209 36
-242 15 -91 37 -258 38 -292 1 -7 8 -13 16 -13 13 0 15 51 17 377 l3 377 39 8
c72 15 68 45 67 -499 l-1 -283 -119 0 -120 0 -6 48 c-3 26 -10 67 -15 92 -4
25 -14 86 -20 135 -14 110 -19 127 -31 119 -7 -4 -10 -74 -9 -183 1 -97 1
-184 1 -193 -1 -15 -11 -18 -56 -18 l-55 0 0 385 0 386 23 8 c19 8 55 8 138 2z
m889 -11 c6 -8 9 -31 8 -50 l-3 -35 -60 -3 c-33 -2 -63 -9 -67 -15 -4 -7 -8
-84 -8 -172 0 -88 4 -165 8 -172 4 -6 34 -13 67 -15 l60 -3 3 -41 c4 -51 -9
-62 -78 -66 l-55 -3 -3 -97 -3 -98 -59 0 -60 0 0 385 c0 448 -17 400 140 400
79 0 103 -3 110 -15z m588 12 l52 -2 0 -50 0 -50 -41 0 c-84 0 -79 22 -79
-350 l0 -330 -57 0 -58 0 3 327 c2 179 -1 330 -6 335 -5 5 -32 11 -60 15 l-52
6 0 43 c0 27 5 46 14 51 13 7 154 10 284 5z m633 -9 c6 -6 9 -28 7 -49 l-3
-39 -62 -5 c-34 -3 -64 -8 -67 -11 -11 -10 -13 -338 -2 -349 5 -5 36 -10 67
-10 60 0 69 -7 69 -55 0 -49 -8 -55 -75 -55 -73 0 -72 2 -69 -122 l1 -78 -58
0 -59 0 3 385 c2 279 6 388 14 393 18 11 223 6 234 -5z m462 0 c4 -2 7 -177 7
-389 l0 -384 -55 0 -55 0 0 385 c0 355 1 385 18 394 15 10 65 6 85 -6z m561
-2 c14 -12 16 -56 16 -392 l0 -379 -59 0 -58 0 1 381 c1 365 2 381 21 395 22
16 56 14 79 -5z m496 3 c5 -5 16 -52 25 -104 32 -200 41 -230 59 -201 3 5 17
73 30 151 14 79 29 147 35 153 5 5 27 12 49 14 47 4 67 -14 59 -54 -3 -16 -21
-122 -41 -236 -19 -114 -37 -211 -39 -215 -2 -4 2 -45 9 -92 8 -47 17 -109 20
-137 l7 -53 -61 0 c-65 0 -72 6 -72 61 0 45 -18 34 -26 -16 l-6 -45 -60 0
c-32 0 -57 4 -54 8 3 5 14 70 25 144 23 151 25 120 -39 428 -37 179 -37 197
-7 202 34 6 77 2 87 -8z m3659 2 c10 -12 61 -321 92 -551 5 -38 13 -101 19
-140 5 -38 9 -73 10 -77 0 -5 -24 -8 -54 -8 l-53 0 -6 57 c-4 32 -11 87 -17
123 -6 36 -15 95 -20 133 -5 37 -16 80 -25 95 -14 25 -15 9 -11 -190 l4 -218
-58 0 -59 0 0 376 c-1 239 3 383 9 395 9 16 22 19 84 19 50 0 77 -4 85 -14z
m242 4 c18 -10 19 -25 19 -395 l0 -385 -66 0 -66 0 8 28 c5 15 9 187 9 382 0
195 4 361 8 368 10 15 61 16 88 2z m628 -4 c7 -8 11 -32 9 -53 l-3 -38 -60 -3
c-33 -2 -63 -9 -67 -15 -14 -22 -10 -335 5 -344 6 -4 37 -10 67 -13 l55 -5 3
-47 c3 -46 2 -47 -30 -52 -18 -3 -49 -7 -68 -8 l-35 -3 -3 -97 -3 -98 -59 0
-60 0 0 389 c0 302 3 390 13 394 6 3 60 6 118 6 81 1 109 -2 118 -13z m632 4
c22 -12 27 -68 7 -88 -7 -7 -34 -12 -60 -12 -31 0 -49 -4 -50 -12 -2 -12 -3
-133 -7 -520 l-1 -148 -55 0 -55 0 0 328 c0 180 -4 332 -8 339 -4 6 -30 13
-57 15 l-50 3 -3 38 c-5 64 2 67 170 67 84 0 158 -5 169 -10z m594 -45 l0 -50
-65 -5 -65 -5 -3 -170 c-3 -196 -3 -195 85 -195 l53 0 0 -50 c0 -49 0 -50 -32
-52 -43 -2 -80 -5 -95 -7 -10 -1 -13 -28 -13 -101 l0 -100 -55 0 -55 0 0 183
c-1 391 1 578 7 592 4 13 25 15 122 13 l116 -3 0 -50z"/>
</g>
</svg>
